<svg xmlns:xlink="http://www.w3.org/1999/xlink"  width="20px" height="20px" viewBox="0 0 24 24" fill="none" xmlns="http://www.w3.org/2000/svg" class="bepo-icon-svg _1ixx0vi0"><path fill-rule="evenodd" clip-rule="evenodd" d="M12 2C6.47715 2 2 6.47715 2 12C2 17.5228 6.47715 22 12 22C17.5228 22 22 17.5228 22 12C22 6.47715 17.5228 2 12 2ZM9.30821 3.97561C7.19916 4.6828 5.46082 6.19818 4.46109 8.15385H7.73916C7.94114 7.11192 8.22394 6.16234 8.57325 5.34671C8.78806 4.84512 9.03308 4.38237 9.30821 3.97561ZM7.50803 9.69231H3.85697C3.64949 10.4259 3.53846 11.2 3.53846 12C3.53846 12.8 3.64949 13.5741 3.85697 14.3077H7.50805C7.42714 13.5662 7.38462 12.793 7.38462 11.9999C7.38462 11.2069 7.42714 10.4337 7.50803 9.69231ZM9.05639 14.3077C8.96989 13.5771 8.92308 12.8032 8.92308 11.9999C8.92308 11.1966 8.96989 10.4229 9.05637 9.69231H14.9436C15.0301 10.4229 15.0769 11.1966 15.0769 11.9999C15.0769 12.8032 15.0301 13.5771 14.9436 14.3077H9.05639ZM7.73919 15.8462H4.46109C5.46085 17.8019 7.19925 19.3173 9.30839 20.0244C9.03318 19.6176 8.7881 19.1548 8.57325 18.6531C8.22396 17.8375 7.94118 16.888 7.73919 15.8462ZM14.6916 20.0244C16.8007 19.3173 18.5392 17.8019 19.5389 15.8462H16.2608C16.0588 16.888 15.776 17.8375 15.4268 18.6531C15.2119 19.1548 14.9668 19.6176 14.6916 20.0244ZM14.6908 15.8462C14.5141 16.6725 14.2833 17.4152 14.0125 18.0474C13.6889 18.8031 13.3233 19.3654 12.9566 19.7276C12.5931 20.0866 12.2707 20.2114 12 20.2114C11.7293 20.2114 11.4069 20.0866 11.0434 19.7276C10.6767 19.3654 10.3111 18.8031 9.98747 18.0474C9.71671 17.4152 9.48595 16.6725 9.30921 15.8462H14.6908ZM16.4919 14.3077H20.143C20.3505 13.5741 20.4615 12.8 20.4615 12C20.4615 11.2 20.3505 10.4259 20.143 9.69231H16.492C16.5729 10.4337 16.6154 11.2069 16.6154 11.9999C16.6154 12.793 16.5729 13.5662 16.4919 14.3077ZM16.2608 8.15385H19.5389C18.5392 6.19818 16.8008 4.6828 14.6918 3.97561C14.9669 4.38237 15.2119 4.84512 15.4268 5.34671C15.7761 6.16234 16.0589 7.11192 16.2608 8.15385ZM14.6908 8.15385H9.30917C9.48591 7.32743 9.71669 6.58464 9.98747 5.95237C10.3111 5.19674 10.6767 4.63442 11.0434 4.27219C11.4069 3.91321 11.7293 3.78836 12 3.78836C12.2707 3.78836 12.5931 3.91321 12.9566 4.27219C13.3233 4.63442 13.6889 5.19674 14.0125 5.95237C14.2833 6.58464 14.5141 7.32743 14.6908 8.15385Z" fill="var(--theme-color-icon-active, #1b1b1a)"></path></svg>