<svg width="16px" height="16px" viewBox="0 0 16 16" fill="none" xmlns="http://www.w3.org/2000/svg">
<path d="M8 0.25C3.5 0.25 0 3.75 0 8.25C0 13.5 4.75 15.75 5.5 15.75C6 15.75 6 15.5 6 15.25V14C4.25 14.5 3.5 13.5 3.25 12.75C3.25 12.75 3.25 12.5 2.75 12C2.5 11.75 1.5 11.25 2.5 11.25C3.25 11.25 3.75 12.25 3.75 12.25C4.5 13.25 5.5 13 6 12.75C6 12.25 6.5 11.75 6.5 11.75C4.5 11.5 3 10.75 3 8C3 7 3.25 6.25 3.75 5.75C3.75 5.75 3.25 4.75 3.75 3.5C3.75 3.5 5 3.5 6 4.5C6.75 4 9.25 4 10 4.5C11 3.5 12.25 3.5 12.25 3.5C12.75 5.25 12.25 5.75 12.25 5.75C12.75 6.25 13 7 13 8C13 10.75 11.25 11.5 9.5 11.75C9.75 12 10 12.5 10 13.25V15.25C10 15.5 10 15.75 10.5 15.75C11.25 15.75 16 13.5 16 8.25C16 3.75 12.5 0.25 8 0.25Z" fill="black"/>
</svg>
