<svg width="16" height="16" viewBox="0 0 16 16" fill="none" xmlns="http://www.w3.org/2000/svg">
<path d="M5.49381 0.439288C3.50593 1.10678 1.81053 2.56718 0.869142 4.40837C0.540114 5.0445 0.302483 5.72095 0.160819 6.4198C-0.200198 8.15795 0.0511429 10.0081 0.869142 11.5939C1.39924 12.6288 2.1624 13.5471 3.08551 14.2639C3.95835 14.9448 4.97285 15.4466 6.05133 15.7288C7.40857 16.0872 8.8572 16.0782 10.2281 15.7736C11.4666 15.4958 12.6364 14.9135 13.5687 14.0713C14.5558 13.1798 15.2595 12.0106 15.6343 10.7517C16.041 9.37645 16.0958 7.91156 15.8399 6.50491C13.2808 6.50491 10.7217 6.50491 8.15802 6.50491C8.15802 7.54422 8.15802 8.58801 8.15802 9.62732C9.63864 9.62732 11.1238 9.62732 12.6045 9.62732C12.4308 10.6263 11.8276 11.5357 10.9685 12.1002C10.4292 12.4541 9.8123 12.687 9.17252 12.7945C8.52817 12.902 7.86555 12.9155 7.22577 12.79C6.57229 12.6646 5.95079 12.3958 5.40698 12.0195C4.53871 11.4237 3.87609 10.5457 3.53792 9.5646C3.19061 8.56561 3.18604 7.45015 3.53792 6.45116C3.78012 5.74783 4.18684 5.09378 4.72151 4.56517C5.37956 3.90216 6.23412 3.43178 7.15723 3.23915C7.94781 3.0734 8.77951 3.10476 9.55182 3.33323C10.2099 3.53034 10.8131 3.87976 11.3112 4.34566C11.8139 3.85736 12.312 3.36459 12.8147 2.87629C13.0752 2.61198 13.3539 2.36111 13.6098 2.08785C12.8512 1.39796 11.9555 0.842469 10.9822 0.493046C9.2365 -0.147563 7.25776 -0.161003 5.49381 0.439288Z" fill="white"/>
<path d="M5.49409 0.439317C7.25804 -0.160974 9.23676 -0.147534 10.9916 0.488595C11.9649 0.838018 12.856 1.39351 13.6192 2.0834C13.3633 2.35218 13.0891 2.60753 12.8241 2.87184C12.3214 3.36014 11.8233 3.85291 11.3206 4.34121C10.8225 3.87531 10.2193 3.52141 9.56122 3.32878C8.78892 3.10031 7.95722 3.06895 7.16664 3.2347C6.24354 3.42733 5.38899 3.90219 4.73094 4.56072C4.19627 5.08933 3.78956 5.74338 3.54736 6.44671C2.65625 5.77026 1.76513 5.08933 0.874023 4.41288C1.81083 2.56721 3.50623 1.1068 5.49409 0.439317Z" fill="#E94435"/>
<path d="M0.160817 6.42011C0.30248 5.72127 0.544677 5.04482 0.869131 4.40869C1.76024 5.08514 2.65134 5.76607 3.54245 6.44251C3.19057 7.44151 3.19514 8.55697 3.54245 9.55597C2.65134 10.2324 1.76024 10.9133 0.869131 11.5898C0.0511422 10.0129 -0.200195 8.15827 0.160817 6.42011Z" fill="#F8BB15"/>
<path d="M8.16284 6.50049C10.7219 6.50049 13.281 6.50049 15.8447 6.50049C16.1006 7.90713 16.0458 9.37201 15.639 10.7473C15.2643 12.0061 14.5606 13.1798 13.5735 14.0668C12.7098 13.4083 11.8415 12.7498 10.9824 12.0912C11.8415 11.5313 12.4447 10.6174 12.6184 9.6184C11.1378 9.6184 9.6526 9.6184 8.17198 9.6184C8.15827 8.58358 8.16284 7.54427 8.16284 6.50049Z" fill="#547DBE"/>
<path d="M0.869141 11.5936C1.76025 10.9172 2.65136 10.2363 3.54247 9.55981C3.88064 10.5454 4.54326 11.4189 5.41152 12.0147C5.95533 12.391 6.57682 12.6553 7.2303 12.7853C7.87007 12.9107 8.53726 12.8973 9.17704 12.7897C9.81681 12.6822 10.4337 12.4493 10.973 12.0954C11.8367 12.7539 12.7049 13.4124 13.564 14.071C12.6318 14.9176 11.4619 15.4955 10.2235 15.7733C8.85715 16.0779 7.40852 16.0869 6.04672 15.7285C4.96825 15.4462 3.95376 14.9445 3.08092 14.2636C2.16239 13.5423 1.39924 12.624 0.869141 11.5936Z" fill="#34A751"/>
</svg>
