<svg width="72" height="35" viewBox="0 0 72 35" fill="none" xmlns="http://www.w3.org/2000/svg">
<path fill-rule="evenodd" clip-rule="evenodd" d="M17.1266 34.3637C26.5835 34.3637 34.2531 26.6689 34.2531 17.1819C34.2531 7.69482 26.5835 0 17.1266 0C7.66968 0 0 7.69482 0 17.1819C0 26.6689 7.66968 34.3637 17.1266 34.3637Z" fill="#1B1B1A"/>
<path fill-rule="evenodd" clip-rule="evenodd" d="M21.2972 23.2253H17.7537V9.78345H16.4321V24.551H17.7537V24.5436H21.2972V23.2253Z" fill="white"/>
<path fill-rule="evenodd" clip-rule="evenodd" d="M30.1482 17.7298H21.3193V16.4115H31.4406C31.4548 16.6633 31.4627 16.9225 31.4627 17.1817C31.4627 25.121 25.0473 31.5642 17.1266 31.5642C9.20503 31.5642 2.78955 25.1284 2.78955 17.1817C2.78955 9.2351 9.20503 2.79932 17.1266 2.79932C17.3333 2.79932 17.5399 2.79932 17.7466 2.81413V4.12499C17.5399 4.11758 17.3333 4.11018 17.1266 4.11018C9.9288 4.11018 4.09695 9.96094 4.09695 17.1817C4.09695 24.4025 9.9288 30.2533 17.1266 30.2533C24.3235 30.2533 29.8387 24.7136 30.1411 17.7668V17.7298H30.1482Z" fill="white"/>
<path fill-rule="evenodd" clip-rule="evenodd" d="M11.7828 13.7605C12.8977 13.7605 13.798 12.8569 13.798 11.7387C13.798 10.6203 12.8977 9.7168 11.7828 9.7168C10.6679 9.7168 9.76758 10.6203 9.76758 11.7387C9.76758 12.8569 10.6679 13.7605 11.7828 13.7605Z" fill="white"/>
<path fill-rule="evenodd" clip-rule="evenodd" d="M42.7583 25.6175H54.9906V21.9071H47.6083H47.2464V21.5443V8.62817H42.7583V25.6175Z" fill="#1B1B1A"/>
<path fill-rule="evenodd" clip-rule="evenodd" d="M69.7776 9.82796C68.3753 8.73929 66.5667 8.18384 64.4105 8.18384C61.8489 8.18384 59.7157 8.96892 58.2247 10.4649C56.6743 12.0201 55.8477 14.316 55.8477 17.1006C55.8477 20.0778 56.7186 22.5811 58.2912 24.166C59.5312 25.4101 61.1775 26.0618 63.0676 26.0618C67.2089 26.0618 68.1686 23.5661 68.1686 23.5661V25.6101H71.9116V16.0194H64.4628V19.0188H67.8874C67.8874 19.0188 67.9176 22.7958 64.3812 22.7958C63.4809 22.7958 62.6836 22.47 62.0636 21.8479C61.1039 20.8851 60.5938 19.2632 60.5938 17.1599C60.5938 13.6791 61.9749 11.598 64.2854 11.598C65.725 11.598 66.8097 12.4867 67.0909 13.8346H71.8593C71.6083 11.8795 71.077 10.8574 69.7704 9.82057L69.7776 9.82796Z" fill="#1B1B1A"/>
</svg>