<svg width="109" height="32" viewBox="0 0 109 32" fill="none" xmlns="http://www.w3.org/2000/svg">
<path d="M25.1627 25.1627C23.4064 26.9135 19.9904 27.9476 16.0037 27.9476C12.0169 27.9476 8.59182 26.9062 6.84647 25.1554C5.10111 23.4045 4.04879 19.9831 4.04879 15.9964C4.04879 12.0096 5.09746 8.59 6.84647 6.83917C8.59547 5.08835 12.0205 4.05609 16.0037 4.05609C19.9868 4.05609 23.4064 5.09564 25.1627 6.84646C26.919 8.59729 27.9549 12.0205 27.9549 16.0037C27.9549 19.9868 26.908 23.4118 25.1627 25.1627ZM32 16.0018C32.0004 12.8372 31.0622 9.74349 29.3043 7.11202C27.5463 4.48056 25.0475 2.42951 22.1238 1.21828C19.2001 0.00705665 15.9829 -0.309952 12.879 0.307353C9.77514 0.924659 6.92405 2.44855 4.6863 4.6863C2.44855 6.92405 0.924659 9.77514 0.307354 12.879C-0.309952 15.9829 0.0070556 19.2001 1.21828 22.1238C2.42951 25.0475 4.48055 27.5463 7.11202 29.3043C9.74348 31.0622 12.8372 32.0004 16.0018 32C20.2448 32 24.314 30.3145 27.3142 27.3142C30.3145 24.314 32 20.2448 32 16.0018Z" fill="#FF5A00"/>
<path d="M19.0895 13.7644V18.1415C19.0895 18.3833 18.9934 18.6153 18.8224 18.7863C18.6514 18.9573 18.4195 19.0534 18.1776 19.0534H13.8006C13.5587 19.0534 13.3268 18.9573 13.1558 18.7863C12.9847 18.6153 12.8887 18.3833 12.8887 18.1415V13.7644C12.8887 13.5226 12.9847 13.2906 13.1558 13.1196C13.3268 12.9486 13.5587 12.8525 13.8006 12.8525H18.1776C18.4195 12.8525 18.6514 12.9486 18.8224 13.1196C18.9934 13.2906 19.0895 13.5226 19.0895 13.7644Z" fill="#FF5A00"/>
<path d="M23.4922 8.44595C22.252 7.20578 19.3084 6.40332 15.9891 6.40332C12.6717 6.40332 9.72811 7.20578 8.48794 8.44595C7.24777 9.68612 6.44531 12.6279 6.44531 15.9526C6.44531 19.2774 7.2423 22.2191 8.48794 23.4593C9.73358 24.6995 12.6717 25.5019 15.9891 25.5019C19.3084 25.5019 22.252 24.6995 23.4922 23.4593C24.7323 22.2191 25.533 19.2646 25.533 15.9526C25.533 12.6406 24.7378 9.68612 23.4922 8.44595ZM20.5942 20.5266C20.3334 20.7874 19.5473 21.5735 15.9691 21.5735C12.3908 21.5735 11.592 20.7874 11.3422 20.5266C11.0923 20.2658 10.2953 19.4798 10.2953 15.9016C10.2953 12.3233 11.0814 11.5354 11.3422 11.2746C11.603 11.0138 12.3854 10.2333 15.9691 10.2333C19.5528 10.2333 20.3334 11.0138 20.5942 11.2746C20.855 11.5354 21.6355 12.3215 21.6355 15.9016C21.6355 19.4816 20.8532 20.2658 20.5942 20.5266Z" fill="#FF5A00"/>
<path d="M52.5457 11.6183C51.1336 11.6183 49.9951 12.0819 49.13 13.0091L48.6664 11.8705H45.7142V22.3078H49.4248V16.7196C49.4248 15.4763 50.2007 14.6539 51.3644 14.6539C51.5835 14.6493 51.8012 14.6894 52.0043 14.7718C52.2074 14.8541 52.3915 14.9771 52.5454 15.133C52.6994 15.2889 52.8199 15.4746 52.8997 15.6787C52.9794 15.8828 53.0167 16.101 53.0093 16.32V22.3078H56.7198V15.7129C56.7198 14.5103 56.3319 13.5405 55.556 12.7802C54.7802 12.0198 53.789 11.6183 52.5457 11.6183ZM40 7.04849H43.7106V10.759H40V7.04849ZM40 11.8705H43.7106V22.3078H40V11.8705ZM107.075 13.1545C106.646 12.6558 106.111 12.2593 105.509 11.9939C104.907 11.7284 104.253 11.6008 103.596 11.6203C102.327 11.6203 101.297 12.0198 100.492 12.8384L100.027 11.8685H97.0783V26.6953H100.785V21.5707C101.577 22.2211 102.571 22.5744 103.596 22.5696C104.251 22.5874 104.903 22.4608 105.504 22.1987C106.106 21.9365 106.642 21.5453 107.075 21.0528C107.979 20.017 108.445 18.7078 108.445 17.1075C108.445 15.5073 107.979 14.169 107.075 13.1545ZM102.614 19.6485C101.495 19.6485 100.736 18.8067 100.736 17.6487V16.5567C100.736 15.3774 101.495 14.5356 102.614 14.5356C103.817 14.5356 104.68 15.5869 104.68 17.1056C104.68 18.6244 103.807 19.6485 102.604 19.6485H102.614ZM93.2203 7C92.8022 7.00269 92.3941 7.12896 92.0476 7.36294C91.701 7.59692 91.4314 7.92816 91.2726 8.31499C91.1139 8.70182 91.073 9.12696 91.1553 9.53694C91.2375 9.94692 91.4391 10.3234 91.7348 10.6191C92.0305 10.9148 92.407 11.1164 92.817 11.1986C93.227 11.2809 93.6521 11.24 94.0389 11.0813C94.4257 10.9225 94.757 10.6529 94.991 10.3063C95.2249 9.95976 95.3512 9.55176 95.3539 9.13362C95.35 7.88448 94.485 7 93.2203 7ZM91.364 11.8705H95.0746V22.3078H91.364V11.8705ZM75.8875 13.1545C74.7916 12.1246 73.3563 11.6203 71.6106 11.6203C69.8649 11.6203 68.447 12.1246 67.3278 13.1545C66.2086 14.1845 65.6597 15.4976 65.6597 17.0998C65.6597 18.7019 66.2086 20.0093 67.3278 21.0451C68.447 22.0808 69.861 22.5696 71.6106 22.5696C73.3601 22.5696 74.7916 22.0614 75.8875 21.0528C76.9834 20.0442 77.5556 18.7078 77.5556 17.1075C77.5556 15.5073 77.0067 14.169 75.8875 13.1545ZM71.6106 19.6931C70.342 19.6931 69.4556 18.6185 69.4556 17.0998C69.4556 15.581 70.342 14.4851 71.6106 14.4851C72.8791 14.4851 73.783 15.5597 73.783 17.0998C73.783 18.6399 72.8733 19.6931 71.6106 19.6931ZM64.1429 10.1558C64.5531 10.1635 64.962 10.2063 65.3649 10.2838L65.8304 7.54116C64.9844 7.3164 64.1125 7.20359 63.2371 7.2056C62.0733 7.2056 61.1241 7.54246 60.3897 8.21616C59.672 8.89116 59.3132 9.77759 59.3132 10.8948V11.8647H57.5675V14.6752H59.3132V22.3078H63.0257V14.6752H65.1767V11.8705H63.0257V11.2886C63.012 11.1377 63.0313 10.9857 63.0824 10.8431C63.1335 10.7005 63.215 10.5708 63.3214 10.4629C63.4278 10.3551 63.5564 10.2717 63.6983 10.2187C63.8401 10.1657 63.9919 10.1442 64.1429 10.1558ZM88.6427 13.1545C88.2136 12.6557 87.6785 12.2591 87.0764 11.9937C86.4744 11.7282 85.8206 11.6006 85.163 11.6203C84.1412 11.6048 83.1474 11.9542 82.3602 12.6056V7.46552H78.6477V22.3078H81.5998L82.0653 21.3379C82.8645 22.1584 83.9002 22.5619 85.1688 22.5619C85.8246 22.5805 86.4765 22.4542 87.078 22.192C87.6795 21.9298 88.2157 21.5382 88.6485 21.0451C89.5563 20.0093 90.0218 18.7 90.0218 17.0998C90.0218 15.4996 89.5505 14.169 88.6427 13.1545ZM84.1815 19.6485C83.0623 19.6485 82.302 18.8067 82.302 17.6487V16.5567C82.302 15.3774 83.0623 14.5356 84.1815 14.5356C85.3783 14.5356 86.2414 15.5869 86.2414 17.1056C86.2414 18.6244 85.3744 19.6485 84.1776 19.6485H84.1815Z" fill="#373A3B"/>
</svg>
