<svg width="115" height="24" viewBox="0 0 115 24" fill="none" xmlns="http://www.w3.org/2000/svg">
<path d="M41.9702 1.48169H46.3042L53.6736 14.6157L61.0431 1.48169H65.2832V23.0628H61.7472V6.52249L55.2853 17.9757H51.9682L45.5062 6.52249V23.0628H41.9702V1.48169Z" fill="#1B1B1A"/>
<path d="M76.689 23.448C75.0512 23.448 73.6117 23.0911 72.3706 22.3766C71.1292 21.6629 70.1618 20.6735 69.4682 19.409C68.7744 18.1454 68.4276 16.6959 68.4277 15.0622C68.4277 13.408 68.7667 11.9433 69.4447 10.6691C70.1227 9.39486 71.0641 8.39798 72.2689 7.67837C73.4737 6.95921 74.8585 6.59954 76.423 6.59937C77.9772 6.59937 79.3149 6.96161 80.4364 7.68603C81.5574 8.4107 82.4206 9.42556 83.0258 10.7305C83.6306 12.0359 83.9331 13.5673 83.9333 15.3247V16.2804H71.9325C72.1516 17.5955 72.6914 18.6313 73.552 19.3859C74.4125 20.1413 75.4999 20.5195 76.8142 20.5195C77.8676 20.5195 78.7752 20.3647 79.5366 20.0568C80.298 19.748 81.0125 19.2809 81.6803 18.6535L83.5578 20.9199C81.6905 22.6053 79.4008 23.448 76.689 23.448ZM79.2707 10.646C78.5299 9.90081 77.5598 9.52824 76.3605 9.52815C75.1921 9.52815 74.2142 9.90847 73.4268 10.6691C72.6391 11.4299 72.141 12.4523 71.9325 13.7363H80.538C80.4336 12.4212 80.0112 11.3907 79.2707 10.646Z" fill="#1B1B1A"/>
<path d="M88.2203 9.83664H84.9658V6.98473H88.2203V2.26782H91.6314V6.98473H96.5754V9.83664H91.6314V17.0661C91.6314 18.2683 91.8399 19.127 92.2567 19.6404C92.6736 20.1548 93.3885 20.411 94.4006 20.411C94.8494 20.411 95.2299 20.3932 95.543 20.3576C95.8561 20.3212 96.2002 20.2722 96.5754 20.2108V23.0316C96.147 23.1535 95.7106 23.2469 95.2689 23.3092C94.7642 23.3822 94.2542 23.4186 93.7433 23.4169C90.0615 23.4169 88.2201 21.4334 88.2203 17.4675V9.83664Z" fill="#1B1B1A"/>
<path d="M114.349 23.0627H111.001V20.8123C110.406 21.6549 109.65 22.3045 108.732 22.7619C107.814 23.2193 106.771 23.448 105.603 23.448C104.163 23.448 102.888 23.0858 101.778 22.3615C100.666 21.6371 99.7925 20.6396 99.1565 19.3707C98.5197 18.1018 98.2021 16.6496 98.2021 15.0159C98.2021 13.3715 98.525 11.9175 99.1725 10.6531C99.8191 9.38951 100.713 8.39789 101.856 7.67837C102.998 6.95921 104.309 6.59954 105.79 6.59937C106.907 6.59937 107.908 6.81257 108.794 7.23915C109.669 7.65604 110.426 8.27794 111.001 9.05032V6.98484H114.349V23.0627ZM110.938 12.6116C110.573 11.6968 109.996 10.9743 109.209 10.4457C108.422 9.91612 107.512 9.65157 106.479 9.65157C105.019 9.65157 103.856 10.1343 102.99 11.1007C102.124 12.0661 101.691 13.3715 101.691 15.0159C101.691 16.671 102.108 17.9808 102.943 18.9472C103.778 19.9127 104.909 20.3958 106.338 20.3958C107.391 20.3958 108.33 20.1289 109.154 19.5941C109.978 19.0602 110.573 18.3403 110.938 17.4363V12.6116Z" fill="#1B1B1A"/>
<path d="M3.74652 15.7333C3.74652 17.0378 4.03724 18.0397 4.41719 18.6457C4.91537 19.4394 5.65839 19.7758 6.4159 19.7758C7.39294 19.7758 8.28675 19.5373 10.0092 17.1899C11.3892 15.3088 13.0152 12.6678 14.1092 11.0127L15.962 8.20797C17.249 6.26022 18.7386 4.0949 20.4467 2.6273C21.8411 1.42941 23.3452 0.763916 24.859 0.763916C27.4006 0.763916 29.8215 2.21487 31.6742 4.93633C33.7019 7.91681 34.6862 11.6712 34.6862 15.5455C34.6862 17.8484 34.2254 19.5409 33.4413 20.8774C32.6838 22.1703 31.2074 23.4623 28.7238 23.4623V19.7758C30.8503 19.7758 31.3811 17.8502 31.3811 15.6469C31.3811 12.5076 30.6381 9.02323 29.0012 6.53348C27.8396 4.76761 26.3342 3.68852 24.6781 3.68852C22.8868 3.68852 21.4454 5.01952 19.8254 7.3927C18.9642 8.65359 18.0801 10.1905 17.0874 11.9239L15.9945 13.8317C13.7992 17.666 13.2431 18.5398 12.1455 19.9813C10.2216 22.5058 8.57865 23.4623 6.4159 23.4623C3.85025 23.4623 2.22789 22.3678 1.2231 20.7181C0.402875 19.3745 0 17.6108 0 15.6007L3.74652 15.7333Z" fill="#1B1B1A"/>
<path d="M2.95508 5.19661C4.67274 2.58807 7.15154 0.763916 9.99459 0.763916C11.6411 0.763916 13.278 1.24397 14.9872 2.61894C16.8568 4.12231 18.8495 6.59773 21.3355 10.6772L22.2269 12.1419C24.3788 15.6736 25.6031 17.4907 26.3196 18.3476C27.2412 19.4474 27.8865 19.7758 28.7248 19.7758C30.8514 19.7758 31.3822 17.8502 31.3822 15.6469L34.6872 15.5455C34.6872 17.8484 34.2264 19.5409 33.4423 20.8774C32.6849 22.1703 31.2084 23.4623 28.7248 23.4623C27.1808 23.4623 25.813 23.1322 24.3004 21.7263C23.1376 20.6469 21.7782 18.7302 20.7324 17.0066L17.6216 11.8874C16.0607 9.31794 14.6289 7.40223 13.8002 6.53473C12.9088 5.60183 11.7629 4.47522 9.93427 4.47522C8.45425 4.47522 7.19737 5.49844 6.14554 7.06356L2.95508 5.19661Z" fill="#1B1B1A"/>
<path d="M9.93321 4.47522C8.45321 4.47522 7.19632 5.49843 6.1445 7.06356C4.65722 9.27514 3.74653 12.569 3.74653 15.7333C3.74653 17.0378 4.03724 18.0397 4.41719 18.6457L1.2231 20.7181C0.402875 19.3745 0 17.6108 0 15.6007C0 11.947 1.01805 8.13785 2.95404 5.19661C4.6717 2.58807 7.15049 0.763916 9.99353 0.763916L9.93321 4.47522Z" fill="#1B1B1A"/>
</svg>