<svg xmlns:xlink="http://www.w3.org/1999/xlink"  width="24px" height="24px" viewBox="0 0 24 24" fill="none" xmlns="http://www.w3.org/2000/svg" class="bepo-icon-svg _1ixx0vi0"><path fill-rule="evenodd" clip-rule="evenodd" d="M2 12C2 6.47715 6.47715 2 12 2C17.5228 2 22 6.47715 22 12C22 17.5228 17.5228 22 12 22C6.47715 22 2 17.5228 2 12ZM16.7873 9.16133C17.0806 9.46872 17.0691 9.95564 16.7617 10.2489L11.1175 15.6335C10.8201 15.9172 10.3522 15.917 10.0551 15.6331L7.23778 12.9407C6.93064 12.6472 6.91959 12.1603 7.21311 11.8532C7.50662 11.546 7.99354 11.535 8.30068 11.8285L10.587 14.0134L15.6998 9.13573C16.0072 8.84248 16.4941 8.85394 16.7873 9.16133Z" fill="var(--theme-color-icon-accent, #fc6423)"></path></svg>