<svg width="112" height="31" viewBox="0 0 112 31" fill="none" xmlns="http://www.w3.org/2000/svg">
<path fill-rule="evenodd" clip-rule="evenodd" d="M0 0.76001H29.2568V30.1035H0V0.76001Z" fill="#232020"/>
<path fill-rule="evenodd" clip-rule="evenodd" d="M0.847656 1.6106H28.4086V29.2606H0.847656V1.6106Z" fill="#1B1B1A"/>
<path fill-rule="evenodd" clip-rule="evenodd" d="M2.31225 23.6684L5.90362 27.3435L14.3299 18.7682L23.0355 27.5165L26.6845 23.8918L18.0649 15.2444L19.7244 13.6374V10.2073L20.7657 9.32097V12.0088L22.1015 13.1042L26.1027 9.09032L27.3888 10.0776C28.1427 7.26715 23.761 0.882527 20.1262 4.42075L15.8954 8.62912L16.7575 9.67405L14.6101 11.7782L12.5337 9.7245L13.6256 8.73724L8.99295 4.24781C5.50182 1.36535 1.92465 5.75389 1.80225 10.0271L3.07417 8.96779L6.96709 13.1762L8.36052 12.0088V9.42908L9.22266 10.0848V13.4645L10.9106 15.1579L2.31225 23.6612V23.6684Z" fill="white"/>
<path fill-rule="evenodd" clip-rule="evenodd" d="M36.7267 4.27682V6.82062H37.8185C39.3202 6.53957 38.9104 4.37771 37.8185 4.27682H36.7267ZM33.624 1.74748V13.2701H36.7267V9.52288L39.3707 13.2701H43.0339L39.7725 8.65815C43.5439 6.82061 42.1354 1.79793 38.1707 1.74748H33.624ZM47.9682 7.5124C48.9882 7.5124 49.8219 8.29065 49.8219 9.24187C49.8219 10.1931 48.9953 10.9713 47.9682 10.9713C46.941 10.9713 46.1366 10.1931 46.1366 9.24187C46.1366 8.29065 46.9623 7.5124 47.9682 7.5124ZM47.3145 4.96863C48.1624 4.96863 48.9527 5.24967 49.6064 5.71087V5.27127H52.6372L52.6514 13.2773H49.5842L49.5993 12.7801C48.9456 13.2413 48.1553 13.5079 47.3074 13.5079C45.0518 13.5079 43.1989 11.5983 43.1989 9.24908C43.1989 6.89984 45.0518 4.96863 47.3074 4.96863H47.3145ZM54.2532 5.27127H57.4783V13.2773H54.2532V5.27127ZM55.8773 0.69539C56.8104 0.69539 57.5652 1.47364 57.5652 2.41043C57.5652 3.34724 56.8104 4.1255 55.8773 4.1255C54.9433 4.1255 54.1672 3.34724 54.1672 2.41043C54.1672 1.47364 54.9211 0.69539 55.8773 0.69539ZM80.3498 5.27127H83.5748V13.2773H80.3498V5.27127ZM81.9516 0.69539C82.8989 0.69539 83.6608 1.47364 83.6608 2.41043C83.6608 3.34724 82.9069 4.1255 81.9516 4.1255C80.9955 4.1255 80.2558 3.34724 80.2558 2.41043C80.2558 1.47364 81.0106 0.69539 81.9516 0.69539ZM58.0752 5.27127V7.81503H59.1884V13.2773H62.3061V7.81503H65.2295V13.2773H68.4546V7.77899H70.4654V5.30732H68.3685V3.52018C68.318 2.86442 69.848 2.59779 70.3793 3.13105V0.515235C67.4204 -0.42157 65.0211 1.25745 65.0424 3.85888V5.27127H62.291V3.52018C62.2555 2.86442 63.5984 2.59779 64.3674 3.13105V0.515235C61.7961 -0.241415 59.0447 1.01245 59.066 3.83726V5.24966L58.0823 5.26408L58.0752 5.27127ZM75.0625 13.5079C77.8281 13.4935 78.8481 12.3405 79.4513 10.6615H76.6502C75.3792 12.2901 73.5325 11.1011 73.6185 9.77515H79.5373C79.5373 6.52515 77.8139 4.98304 75.0625 4.98304C72.312 4.98304 70.5878 6.92867 70.5878 9.29953C70.5878 11.6703 72.5985 13.5223 75.0625 13.5079ZM74.0212 7.88711C74.0567 6.91426 76.1686 6.91426 76.3123 7.88711H74.0212ZM97.0142 13.5079C99.8011 13.4935 100.821 12.3405 101.417 10.6615H98.601C97.33 12.2901 95.4842 11.1011 95.5702 9.77515H101.489C101.489 6.52515 99.7798 4.98304 97.0142 4.98304C94.2487 4.98304 92.5386 6.92867 92.5386 9.29953C92.5386 11.6703 94.5502 13.5223 97.0142 13.5079ZM95.972 7.88711C96.0084 6.91426 98.1203 6.91426 98.264 7.88711H95.972ZM91.6915 5.42981L90.7433 7.37545C89.5433 7.00075 88.3804 7.07282 88.4159 7.41149C88.4523 7.62051 88.258 7.99522 90.1251 8.26181C92.9129 8.70139 92.6823 13.9042 88.0141 13.5151C86.728 13.4286 85.6867 13.0899 84.8246 12.5783L85.8659 10.4957C87.3312 11.2235 88.7388 11.6415 88.847 10.9209C88.9694 10.0201 87.317 10.3373 86.3111 9.58054C84.5159 8.46363 85.5359 5.01907 88.4807 4.98304C89.522 4.91097 90.5925 5.09113 91.7057 5.44424L91.6915 5.42981ZM102.725 5.27127V13.2773H105.734V8.38434C105.82 7.16652 108.219 6.95029 108.234 8.38434V13.2773H111.279V8.25461C111.208 5.44424 108.27 4.08227 105.605 5.8694V5.27127H102.717H102.725ZM35.398 18.1775L33.3872 30.0532H39.0754C42.9328 30.0532 44.5205 25.2467 41.7691 23.6037C44.1107 21.4275 42.9115 18.1558 40.3978 18.1271L35.3909 18.1775H35.398ZM37.7041 25.2683L37.3014 27.2285H38.623C40.1247 27.3005 39.9446 25.2683 39.0833 25.2683H37.7112H37.7041ZM38.372 21.0095L38.0341 22.6021L38.4367 22.6165C39.6501 22.6885 40.3544 21.0095 38.8962 21.0095H38.3649H38.372ZM43.0552 30.0749H46.51L47.5522 27.9923H51.4664L52.0482 30.1109H55.2378L52.4722 18.2495H49.2108L43.0623 30.0749H43.0552ZM48.6795 25.499H50.8269L50.1377 22.3715L48.6724 25.499H48.6795ZM56.3297 30.1109H59.5183L60.3299 22.6669L64.8916 30.0749H68.3109L69.7398 18.1775H66.5511L65.6526 25.6214L61.0918 18.1415H57.7949L56.3297 30.1109ZM72.0317 18.1415L69.7904 30.0749H73.1591L74.0567 25.6214L77.0671 30.0749H81.4913L77.1744 23.82L82.6914 18.1271H78.41L74.6386 22.3355L75.2355 18.1271L72.0317 18.1415Z" fill="#1B1B1A"/>
</svg>