<svg width="119" height="26" viewBox="0 0 119 26" fill="none" xmlns="http://www.w3.org/2000/svg">
<path fill-rule="evenodd" clip-rule="evenodd" d="M53.2074 12.6828H49.6985V8.37082H52.7441C54.1082 8.36219 55.7725 8.71501 55.7296 10.4106C55.6867 11.934 54.7602 12.6741 53.216 12.6828H53.2074ZM62.6958 22.3653L58.8438 16.7967C59.5902 16.4008 59.8561 16.289 60.5511 15.7123C62.0181 14.4987 62.773 13.1906 63.0905 11.2885C63.5623 8.47405 62.6787 5.89211 60.491 4.08466C58.8696 2.75062 56.15 2.1137 53.9195 2.12231L42.2691 2.14815L42.312 24.4654L49.7243 24.4481V18.0705C51.5773 18.0705 51.1827 17.8898 51.7833 18.7849L55.3264 24.1383C55.4465 24.3448 55.4551 24.4395 55.7553 24.4395L68.6669 24.4137L73.677 14.843L78.5928 24.3965L85.6191 24.3792L73.6427 0.693616L62.6958 22.3653ZM11.1785 16.6849C11.9936 16.8484 14.0868 17.2529 13.5292 18.3804C12.8686 19.6972 8.09864 18.6299 6.70025 18.0103C4.89007 17.141 4.89865 17.141 3.96353 16.4439L0 21.2378C3.92063 23.8629 6.39998 24.9215 11.4016 24.8871C16.2402 24.8526 20.8385 23.0366 21.1474 18.1049C21.5763 11.2712 15.4423 11.1594 10.6638 9.85978C9.90882 9.65316 8.55333 9.42083 8.79354 8.37082C8.97369 7.56179 10.7924 7.69945 11.496 7.76832C13.349 7.95768 15.5539 8.80969 16.9951 9.84252L20.6241 4.85065C17.304 2.56126 14.4214 1.66616 10.3893 1.77804C5.79945 1.90715 1.50134 3.76621 1.19249 8.99904C0.857907 14.6365 6.88041 15.8328 11.1871 16.6849H11.1785ZM20.6927 8.49985H27.2471L27.2814 24.4912L34.7623 24.4739L34.7281 8.4655H41.2825L41.2739 2.13954L20.6841 2.18256V8.49131H20.6927V8.49985ZM90.2522 25.6961L102.194 2.02765L95.0392 2.04485L90.2859 11.5553L85.4303 2.06208L78.2754 2.07929L90.2433 25.7047L90.2522 25.6961ZM113.321 5.19493H113.784L113.913 2.80225L114.71 5.12606H114.908H115.105L115.895 2.80225L116.032 5.19493H116.495L116.289 2.20838H115.628L114.908 4.46333L114.179 2.20838H113.518L113.329 5.19493H113.321ZM110.936 2.61289H111.862V5.20356H112.325V2.61289H113.252V2.20838H110.936V2.61289ZM106.826 0.65918L118.854 24.2846L111.699 24.3018L106.912 14.8086L102.099 24.319L94.9443 24.3363L106.818 0.667802L106.826 0.65918Z" fill="#1B1B1A"/>
</svg>