<svg xmlns:xlink="http://www.w3.org/1999/xlink"  width="32" height="32" viewBox="0 0 48 48" fill="none" xmlns="http://www.w3.org/2000/svg" class="bepo-pictogram-svg _2bvj2j0"><path fill-rule="evenodd" clip-rule="evenodd" d="M10.4 9.62786C10.4 9.18604 10.0418 8.82788 9.60003 8.82788C9.15821 8.82788 8.80005 9.18604 8.80005 9.62786V36.0279C8.80005 36.4697 9.15821 36.8278 9.60003 36.8278C10.0418 36.8278 10.4 36.4697 10.4 36.0279V9.62786ZM12.24 37.6279C11.7982 37.6279 11.44 37.986 11.44 38.4279C11.44 38.8697 11.7982 39.2278 12.24 39.2278H38.4C38.8418 39.2278 39.2 38.8697 39.2 38.4279C39.2 37.986 38.8418 37.6279 38.4 37.6279H12.24Z" fill="#1B1B1A" class="bepo-2-pictogram--color-primary"></path><path fill-rule="evenodd" clip-rule="evenodd" d="M36.8 9.62786C36.8 8.74419 37.5163 8.02784 38.4 8.02784C39.2837 8.02784 40 8.74419 40 9.62786C40 10.5115 39.2837 11.2279 38.4 11.2279C37.5163 11.2279 36.8 10.5115 36.8 9.62786ZM38.4 6.42788C36.6327 6.42788 35.2 7.86056 35.2 9.62786C35.2 10.5232 35.5678 11.3327 36.1604 11.9135L29.7565 23.3733C29.4544 23.2788 29.1332 23.2279 28.8 23.2279C28.0447 23.2279 27.3505 23.4896 26.8032 23.9272L22.3326 20.5494C22.4539 20.2116 22.52 19.8474 22.52 19.4679C22.52 17.7006 21.0873 16.2679 19.32 16.2679C17.5527 16.2679 16.12 17.7006 16.12 19.4679C16.12 20.2264 16.3839 20.9233 16.8249 21.4717C16.8116 21.4951 16.7994 21.5195 16.7882 21.5447L10.6647 35.4093C10.3316 35.2918 9.97327 35.2279 9.6 35.2279C7.8327 35.2279 6.40002 36.6606 6.40002 38.4279C6.40002 40.1952 7.8327 41.6278 9.6 41.6278C11.3673 41.6278 12.8 40.1952 12.8 38.4279C12.8 37.6219 12.502 36.8855 12.0102 36.3229L18.1403 22.4434C18.5054 22.5882 18.9034 22.6679 19.32 22.6679C20.1287 22.6679 20.8673 22.3679 21.4306 21.8732L25.8416 25.2059C25.6859 25.5824 25.6 25.9951 25.6 26.4279C25.6 28.1952 27.0327 29.6278 28.8 29.6278C30.5673 29.6278 32 28.1952 32 26.4279C32 25.5717 31.6638 24.7941 31.1162 24.2199L37.5466 12.7128C37.8183 12.7878 38.1045 12.8278 38.4 12.8278C40.1673 12.8278 41.6 11.3952 41.6 9.62786C41.6 7.86056 40.1673 6.42788 38.4 6.42788ZM27.2 26.4279C27.2 26.0714 27.3166 25.7422 27.5137 25.4762L27.5183 25.4701L27.5258 25.46C27.818 25.0759 28.2801 24.8278 28.8 24.8278C29.6837 24.8278 30.4 25.5442 30.4 26.4279C30.4 27.3115 29.6837 28.0279 28.8 28.0279C27.9163 28.0279 27.2 27.3115 27.2 26.4279ZM17.72 19.4679C17.72 18.5842 18.4363 17.8679 19.32 17.8679C20.2037 17.8679 20.92 18.5842 20.92 19.4679C20.92 20.3515 20.2037 21.0679 19.32 21.0679C18.4363 21.0679 17.72 20.3515 17.72 19.4679ZM9.6 36.8278C8.71634 36.8278 7.99998 37.5442 7.99998 38.4279C7.99998 39.3115 8.71634 40.0279 9.6 40.0279C10.4837 40.0279 11.2 39.3115 11.2 38.4279C11.2 37.5442 10.4837 36.8278 9.6 36.8278ZM26.4 42.4279C25.9582 42.4279 25.6 42.786 25.6 43.2279C25.6 43.6697 25.9582 44.0278 26.4 44.0278H38.4C38.8418 44.0278 39.2 43.6697 39.2 43.2279C39.2 42.786 38.8418 42.4279 38.4 42.4279H26.4Z" fill="#FC6423" class="bepo-2-pictogram--color-secondary"></path></svg>