<svg xmlns:xlink="http://www.w3.org/1999/xlink"  width="24px" height="24px" viewBox="0 0 24 24" fill="none" xmlns="http://www.w3.org/2000/svg" class="bepo-icon-svg _1ixx0vi0"><path d="M10.5714 3.42857C10.5714 2.63959 9.93184 2 9.14286 2C8.35388 2 7.71429 2.63959 7.71429 3.42857C7.71429 4.21755 8.35388 4.85714 9.14286 4.85714C9.93184 4.85714 10.5714 4.21755 10.5714 3.42857Z" fill="var(--theme-color-icon, #545452)"></path><path d="M14.8607 2H14.8536C14.0666 2 13.4286 2.63799 13.4286 3.425V3.43214C13.4286 4.21915 14.0666 4.85714 14.8536 4.85714H14.8607C15.6477 4.85714 16.2857 4.21915 16.2857 3.43214V3.425C16.2857 2.63799 15.6477 2 14.8607 2Z" fill="var(--theme-color-icon, #545452)"></path><path d="M11.2857 12C10.8912 12 10.5714 12.3198 10.5714 12.7143C10.5714 13.1088 10.8912 13.4286 11.2857 13.4286H12.7143C13.1088 13.4286 13.4286 13.1088 13.4286 12.7143C13.4286 12.3198 13.1088 12 12.7143 12H11.2857Z" fill="var(--theme-color-icon, #545452)"></path><path d="M9.14286 9.85714C9.14286 9.46265 9.46265 9.14286 9.85714 9.14286H14.1429C14.5373 9.14286 14.8571 9.46265 14.8571 9.85714C14.8571 10.2516 14.5373 10.5714 14.1429 10.5714H9.85714C9.46265 10.5714 9.14286 10.2516 9.14286 9.85714Z" fill="var(--theme-color-icon, #545452)"></path><path fill-rule="evenodd" clip-rule="evenodd" d="M6.27919 6.28571C6.26434 6.28571 6.2495 6.28618 6.23469 6.2871C5.87422 6.3096 5.51932 6.45632 5.25452 6.72134C4.99334 6.98275 4.84005 7.34232 4.85863 7.72744V16.2726C4.84005 16.6577 4.99334 17.0172 5.25452 17.2787C5.51704 17.5414 5.8681 17.6879 6.22537 17.7123C6.24313 17.7136 6.26108 17.7143 6.27919 17.7143H7.71429V21.2857C7.71429 21.6802 8.03408 22 8.42857 22C8.82306 22 9.14286 21.6802 9.14286 21.2857V17.7143H14.8571V21.2857C14.8571 21.6802 15.1769 22 15.5714 22C15.9659 22 16.2857 21.6802 16.2857 21.2857V17.7143H17.7208C17.7356 17.7143 17.7505 17.7138 17.7653 17.7129C18.1258 17.6904 18.4807 17.5437 18.7455 17.2787C19.0067 17.0172 19.1599 16.6577 19.1414 16.2726V7.72745C19.1599 7.34233 19.0067 6.98276 18.7455 6.72134C18.4807 6.45632 18.1258 6.3096 17.7653 6.2871C17.7505 6.28618 17.7356 6.28571 17.7208 6.28571H6.27919ZM17.6894 16.2857H6.31057C6.30177 16.2844 6.29393 16.2824 6.2872 16.2801V7.71991C6.29393 7.7176 6.30177 7.71561 6.31057 7.71429H17.6894C17.6982 7.71561 17.7061 7.7176 17.7128 7.71991V16.2801C17.7061 16.2824 17.6982 16.2844 17.6894 16.2857Z" fill="var(--theme-color-icon, #545452)"></path><path d="M3.42857 9.85714C3.42857 9.46265 3.10877 9.14286 2.71429 9.14286C2.3198 9.14286 2 9.46265 2 9.85714V15.5714C2 15.9659 2.3198 16.2857 2.71429 16.2857C3.10877 16.2857 3.42857 15.9659 3.42857 15.5714V9.85714Z" fill="var(--theme-color-icon, #545452)"></path><path d="M21.2857 9.14286C21.6802 9.14286 22 9.46265 22 9.85714V15.5714C22 15.9659 21.6802 16.2857 21.2857 16.2857C20.8912 16.2857 20.5714 15.9659 20.5714 15.5714V9.85714C20.5714 9.46265 20.8912 9.14286 21.2857 9.14286Z" fill="var(--theme-color-icon, #545452)"></path></svg>