<svg xmlns:xlink="http://www.w3.org/1999/xlink"  width="24px" height="24px" viewBox="0 0 24 24" fill="none" xmlns="http://www.w3.org/2000/svg" class="bepo-icon-svg _1ixx0vi0"><path fill-rule="evenodd" clip-rule="evenodd" d="M11.6608 3.51043L11.3607 3.56902C11.0586 3.62477 10.5484 3.86291 10.2612 4.08309C8.79663 5.2048 8.78662 7.40853 10.2402 8.55197C10.5464 8.792 11.0586 9.02825 11.4107 9.09062C11.6888 9.1407 11.7709 9.1974 11.5638 9.1974C11.3717 9.1974 10.9165 9.29946 10.5634 9.42137C9.37787 9.8296 8.39746 10.7954 7.98229 11.9643C7.73318 12.6636 7.74619 12.4463 7.73018 16.3038C7.71918 18.9148 7.72718 19.8796 7.76219 19.9968C7.81922 20.1915 8.04231 20.4107 8.23639 20.4617C8.43147 20.5128 15.5704 20.5128 15.7655 20.4617C15.9596 20.4107 16.1827 20.1915 16.2397 19.9968C16.2747 19.8796 16.2827 18.9148 16.2717 16.3038C16.2557 12.4435 16.2687 12.6561 16.0176 11.9625C15.5915 10.7812 14.6261 9.83055 13.4386 9.42137C13.0854 9.29946 12.6302 9.1974 12.4381 9.1974C12.2311 9.1974 12.3131 9.1407 12.5912 9.09062C12.9434 9.02825 13.4556 8.792 13.7617 8.55197C15.2153 7.40947 15.2053 5.20197 13.7407 4.08404C13.4365 3.85895 13.0909 3.68884 12.7213 3.58225C12.4982 3.52555 11.8079 3.4783 11.6608 3.51043ZM12.5092 5.00824C12.7863 5.10558 13.1404 5.42121 13.2715 5.68864C13.4606 6.07136 13.4606 6.57788 13.2715 6.9606C13.1394 7.23087 12.7873 7.54272 12.5012 7.64572C12.2539 7.73949 11.9826 7.76124 11.7221 7.7082C11.4617 7.65515 11.224 7.52973 11.0396 7.34805C10.9172 7.2337 10.8131 7.10319 10.7304 6.9606C10.6369 6.7602 10.5887 6.54361 10.5887 6.32462C10.5887 6.10563 10.6369 5.88904 10.7304 5.68864C10.8575 5.42971 11.2156 5.10558 11.4807 5.00919C11.8137 4.89972 12.176 4.89938 12.5092 5.00824ZM5.1291 6.37943C4.33477 6.55047 3.6935 7.17511 3.49442 7.97269C3.37737 8.43952 3.4604 9.02636 3.70751 9.4809L3.78654 9.62643L3.54244 9.79653C2.84915 10.2766 2.36895 10.957 2.12385 11.8056L2.0198 12.1647L2.0058 14.6018C1.99079 17.2922 1.98579 17.2327 2.2429 17.4689C2.44798 17.6589 2.55903 17.6693 4.24073 17.657L5.78437 17.6456L5.92143 17.5568C6.00302 17.5096 6.07363 17.4472 6.129 17.3735C6.18436 17.2997 6.22334 17.2162 6.24356 17.1278C6.28263 16.987 6.27499 16.8383 6.22167 16.7017C6.16835 16.5652 6.07193 16.4474 5.94544 16.3642C5.83739 16.2886 5.77837 16.2839 4.63489 16.2735L3.43739 16.2631V14.3136C3.43739 12.1647 3.44139 12.1222 3.6895 11.6733C3.87958 11.3312 4.31076 10.94 4.68891 10.7689C4.95202 10.6499 5.06307 10.6225 5.40921 10.5932C6.22956 10.5232 6.58771 10.3862 7.02289 9.97608C7.48008 9.5461 7.69417 9.06321 7.69517 8.46031C7.69617 7.73833 7.34102 7.074 6.74577 6.68655C6.28658 6.38793 5.65131 6.26698 5.1291 6.37943ZM18.0635 6.36336C17.2261 6.52212 16.5719 7.1307 16.3598 7.95001C16.2837 8.24012 16.2937 8.75231 16.3798 9.0273C16.6129 9.77668 17.2401 10.3597 17.9835 10.5157C18.0935 10.5393 18.3676 10.5733 18.5927 10.5932C18.9388 10.6225 19.0499 10.6499 19.313 10.7689C19.6912 10.94 20.1223 11.3312 20.3124 11.6733C20.5605 12.1222 20.5645 12.1647 20.5645 14.3136V16.2631L19.367 16.2735C18.2236 16.2839 18.1645 16.2886 18.0565 16.3642C17.93 16.4474 17.8336 16.5652 17.7802 16.7017C17.7269 16.8383 17.7193 16.987 17.7584 17.1278C17.8144 17.3272 17.8984 17.4377 18.0805 17.5568L18.2175 17.6456L19.7612 17.657C20.8606 17.6655 21.3539 17.656 21.4749 17.6239C21.679 17.57 21.9001 17.3555 21.9651 17.1467C21.9971 17.0446 22.0061 16.3047 21.9961 14.5839L21.9821 12.1647L21.8781 11.8056C21.633 10.957 21.1528 10.2766 20.4595 9.79653L20.2154 9.62643L20.2944 9.4809C20.5415 9.02541 20.6245 8.43952 20.5075 7.97174C20.2364 6.88406 19.1359 6.16019 18.0635 6.36336ZM5.96745 7.86402C6.37662 8.12483 6.37962 8.74097 5.97145 9.03486C5.8474 9.12464 5.78637 9.1407 5.57828 9.1407C5.3832 9.1407 5.30317 9.1218 5.18912 9.04809C5.08844 8.98246 5.0057 8.89516 4.94772 8.79341C4.88975 8.69165 4.85819 8.57834 4.85565 8.46281C4.85311 8.34728 4.87966 8.23283 4.93311 8.12889C4.98657 8.02495 5.0654 7.93449 5.16311 7.86496C5.28077 7.78662 5.42117 7.74449 5.56512 7.74432C5.70908 7.74415 5.84958 7.78595 5.96745 7.86402ZM18.7638 7.8196C19.0019 7.93394 19.1359 8.15602 19.1389 8.44046C19.1437 8.55924 19.1164 8.6772 19.0597 8.78331C19.0031 8.88942 18.9188 8.9802 18.8148 9.04715C18.6987 9.1218 18.6197 9.1407 18.4236 9.1407C18.2155 9.1407 18.1545 9.12464 18.0305 9.03486C17.4252 8.59828 17.7914 7.64667 18.5237 7.75156C18.6066 7.76388 18.6874 7.78677 18.7638 7.8196ZM12.6012 10.6395C12.8883 10.6914 13.3455 10.8918 13.6576 11.1016C14.2239 11.4843 14.6571 12.1458 14.8101 12.864C14.8501 13.0539 14.8622 13.7891 14.8622 16.0959V19.082H9.13977V16.077C9.13977 12.6703 9.13276 12.7544 9.4579 12.1269C9.91809 11.2386 10.7084 10.7132 11.7809 10.5818C11.9379 10.5629 12.3241 10.5903 12.6012 10.6395Z" fill="var(--theme-color-icon, #545452)"></path></svg>