<svg xmlns:xlink="http://www.w3.org/1999/xlink"  width="24px" height="24px" viewBox="0 0 24 24" fill="none" xmlns="http://www.w3.org/2000/svg" class="bepo-icon-svg _1ixx0vi0"><path fill-rule="evenodd" clip-rule="evenodd" d="M5.84615 3C5.42132 3 5.07692 3.33579 5.07692 3.75V7.93936L2.22532 10.7197C2.00533 10.9342 1.93951 11.2568 2.05858 11.537C2.17764 11.8173 2.45813 12 2.76925 12H5.07692V20.25C5.07692 20.6642 5.42132 21 5.84615 21H21.2307C21.6556 21 22 20.6642 22 20.25V6.75595C22 6.75198 22 6.74802 22 6.74405V3.75C22 3.33579 21.6556 3 21.2307 3H5.84615ZM17.3846 19.5H20.4615V8.56068L17.1593 11.7803C17.0151 11.921 16.8194 12 16.6154 12H6.61538V19.5H9.6923V14.25C9.6923 13.8358 10.0367 13.5 10.4615 13.5H16.6154C17.0402 13.5 17.3846 13.8358 17.3846 14.25V19.5ZM11.6814 10.5H9.24169L11.0055 8.78033C11.3059 8.48744 11.3059 8.01256 11.0055 7.71967C10.7051 7.42678 10.218 7.42678 9.9176 7.71967L7.06598 10.5H4.62634L6.3901 8.78033C6.47069 8.70176 6.52966 8.61008 6.56701 8.51234C6.5918 8.44762 6.60768 8.37866 6.6132 8.30689C6.61482 8.28603 6.61554 8.26512 6.61538 8.24422V4.5H20.4615V6.43936L16.2968 10.5H13.8571L15.6208 8.78033C15.9212 8.48744 15.9212 8.01256 15.6208 7.71967C15.3204 7.42678 14.8334 7.42678 14.533 7.71967L11.6814 10.5ZM11.2308 19.5H15.8461V15H11.2308V19.5Z" fill="var(--theme-color-icon, #545452)"></path></svg>