<svg xmlns:xlink="http://www.w3.org/1999/xlink"  width="16px" height="16px" viewBox="0 0 24 24" fill="none" xmlns="http://www.w3.org/2000/svg" class="bepo-icon-svg _1ixx0vi0" aria-disabled="false"><path fill-rule="evenodd" clip-rule="evenodd" d="M7.5 2C7.91421 2 8.25 2.3444 8.25 2.76923V3.53846H15.75V2.76923C15.75 2.3444 16.0858 2 16.5 2C16.9142 2 17.25 2.3444 17.25 2.76923V3.53846H19.5C20.3284 3.53846 21 4.22725 21 5.07692V20.4615C21 21.3112 20.3284 22 19.5 22H4.5C3.67157 22 3 21.3112 3 20.4615V5.07692C3 4.22725 3.67157 3.53846 4.5 3.53846H6.75V2.76923C6.75 2.3444 7.08579 2 7.5 2ZM6.75 5.07692H4.5V8.15385H19.5V5.07692H17.25V5.84615C17.25 6.27099 16.9142 6.61539 16.5 6.61539C16.0858 6.61539 15.75 6.27099 15.75 5.84615V5.07692H8.25V5.84615C8.25 6.27099 7.91421 6.61539 7.5 6.61539C7.08579 6.61539 6.75 6.27099 6.75 5.84615V5.07692ZM19.5 9.69231H4.5V20.4615H19.5V9.69231Z" fill="var(--theme-color-icon, #545452)"></path></svg>