<svg xmlns:xlink="http://www.w3.org/1999/xlink"  width="24px" height="24px" viewBox="0 0 24 24" fill="none" xmlns="http://www.w3.org/2000/svg" class="bepo-icon-svg _1ixx0vi0"><path d="M4.34425 5.45461C4.11881 5.45276 3.90052 5.53514 3.73072 5.68614C3.57071 5.82843 3.46421 6.02235 3.42857 6.23477V17.7749C3.42857 18.2338 3.6244 18.439 3.75106 18.5061C3.86928 18.5687 4.00554 18.5653 4.13537 18.4346L6.2477 15.8941C6.38342 15.7308 6.58281 15.6367 6.79286 15.6367H13.9254C14.1746 15.6281 14.4111 15.5216 14.5849 15.3392C14.7606 15.1548 14.8583 14.9078 14.8572 14.6509C14.8571 14.6498 14.8571 14.6487 14.8571 14.6476V13.4548C14.8571 13.0532 15.1769 12.7275 15.5714 12.7275C15.9659 12.7275 16.2857 13.0532 16.2857 13.4548V14.6459C16.2881 15.2827 16.0457 15.8951 15.6102 16.3521C15.1743 16.8095 14.5797 17.0748 13.9539 17.091C13.9479 17.0912 13.9418 17.0913 13.9357 17.0913H7.12403L5.20944 19.394C5.20044 19.4048 5.19113 19.4154 5.18153 19.4256C4.60055 20.0468 3.76645 20.1539 3.0918 19.7965C2.42203 19.4418 2 18.6906 2 17.7749V6.18193C2 6.15114 2.00192 6.12038 2.00575 6.08985C2.07854 5.5091 2.35792 4.97569 2.79099 4.59057C3.22328 4.20615 3.77876 3.99613 4.35262 4.00005H13.9357C13.9417 4.00005 13.9478 4.00013 13.9538 4.00029C14.5867 4.01659 15.1874 4.28761 15.6245 4.75399C16.0596 5.21831 16.2971 5.83859 16.2857 6.48003V7.63651C16.2857 8.03818 15.9659 8.3638 15.5714 8.3638C15.1769 8.3638 14.8571 8.03818 14.8571 7.63651V6.47284C14.8571 6.47004 14.8572 6.46725 14.8572 6.46445C14.8572 6.46201 14.8573 6.45957 14.8573 6.45713C14.8628 6.19742 14.767 5.94607 14.5909 5.75813C14.4166 5.57211 14.1776 5.46321 13.9254 5.45463H4.35C4.34808 5.45463 4.34617 5.45463 4.34425 5.45461Z" fill="var(--theme-color-icon-active, #1b1b1a)"></path><path d="M9.85714 10.5456C9.85714 10.1439 10.1769 9.81832 10.5714 9.81832H18.4286V8.36376C18.4286 8.0696 18.6026 7.80441 18.8695 7.69184C19.1364 7.57926 19.4436 7.64149 19.6479 7.84949L21.7908 10.0314C22.0697 10.3154 22.0697 10.7759 21.7908 11.0599L19.6479 13.2418C19.4436 13.4498 19.1364 13.512 18.8695 13.3994C18.6026 13.2869 18.4286 13.0217 18.4286 12.7275V11.2729H10.5714C10.1769 11.2729 9.85714 10.9473 9.85714 10.5456Z" fill="var(--theme-color-icon-active, #1b1b1a)"></path></svg>