<svg xmlns:xlink="http://www.w3.org/1999/xlink"  width="40px" height="40px" viewBox="0 0 40 40" fill="none" xmlns="http://www.w3.org/2000/svg" class="bepo-brand-icon-svg zwub5m0"><path d="M17.8099 16.9016H22.19C22.6913 16.9016 23.0977 17.3079 23.0977 17.8092V22.19C23.0977 22.6912 22.6913 23.0977 22.19 23.0977H17.8099C17.3086 23.0977 16.9023 22.6912 16.9023 22.19V17.8092C16.9023 17.3079 17.3086 16.9016 17.8099 16.9016Z" fill="#FF5A00"></path><path fill-rule="evenodd" clip-rule="evenodd" d="M12.4942 12.4935C13.734 11.2531 16.68 10.4518 19.9996 10.4518C23.3193 10.4518 26.2666 11.2531 27.5064 12.4935C28.7462 13.734 29.548 16.6799 29.548 19.9996C29.548 23.3193 28.7462 26.2653 27.5064 27.5057C26.2659 28.7462 23.3152 29.5475 19.9996 29.5475C16.6841 29.5475 13.7422 28.7462 12.4977 27.5057C11.2531 26.2653 10.4518 23.3193 10.4518 19.9996C10.4518 16.6799 11.2531 13.734 12.4942 12.4935ZM15.3502 24.5734V24.572C15.6086 24.8305 16.3956 25.6174 19.9764 25.6174C23.5552 25.6174 24.3427 24.832 24.6016 24.5738C24.86 24.316 25.6467 23.5293 25.6467 19.9478C25.6467 16.3662 24.8632 15.58 24.602 15.3215L24.5995 15.319C24.3358 15.058 23.5464 14.2768 19.9764 14.2768C16.3949 14.2768 15.6086 15.0631 15.3502 15.3215C15.0917 15.58 14.3055 16.3662 14.3055 19.9478C14.3055 23.5293 15.0917 24.3156 15.3502 24.5734Z" fill="#FF5A00"></path><path fill-rule="evenodd" clip-rule="evenodd" d="M19.9996 4C11.1638 4 4 11.1603 4 19.9996C4 28.7625 11.0444 35.88 19.7787 35.9985C28.7284 36.1193 36.1193 28.7271 35.9985 19.778C35.8792 11.0437 28.7625 4 19.9996 4ZM20.0119 32.0057C16.0266 32.0057 12.6027 30.961 10.8528 29.2098C9.10294 27.46 8.05686 24.036 8.05686 20.0508C8.05686 16.0656 9.10156 12.6415 10.8528 10.8917C12.604 9.14179 16.0266 8.0957 20.0119 8.0957C23.9971 8.0957 27.4211 9.14044 29.171 10.8917C30.9208 12.6429 31.967 16.0656 31.967 20.0508C31.967 24.036 30.9222 27.46 29.171 29.2098C27.4198 30.9598 23.9971 32.0057 20.0119 32.0057Z" fill="#FF5A00"></path></svg>