<svg xmlns:xlink="http://www.w3.org/1999/xlink"  width="24px" height="24px" viewBox="0 0 24 24" fill="none" xmlns="http://www.w3.org/2000/svg" class="bepo-icon-svg _1ixx0vi0"><path fill-rule="evenodd" clip-rule="evenodd" d="M5.21805 4.50376C4.82356 4.50376 4.50376 4.82356 4.50376 5.21805V8.28572C4.50376 8.6802 4.82356 9 5.21805 9H8.28572C8.6802 9 9 8.6802 9 8.28572V5.21805C9 4.82356 8.6802 4.50376 8.28572 4.50376H5.21805ZM3 5.21805C3 3.99305 3.99305 3 5.21805 3H8.28572C9.51071 3 10.5038 3.99305 10.5038 5.21805V8.28572C10.5038 9.51071 9.51071 10.5038 8.28572 10.5038H5.21805C3.99305 10.5038 3 9.51071 3 8.28572V5.21805Z" fill="var(--theme-color-icon, #545452)"></path><path fill-rule="evenodd" clip-rule="evenodd" d="M5.21805 15C4.82356 15 4.50376 15.3198 4.50376 15.7143V18.782C4.50376 19.1764 4.82356 19.4962 5.21805 19.4962H8.28572C8.6802 19.4962 9 19.1764 9 18.782V15.7143C9 15.3198 8.6802 15 8.28572 15H5.21805ZM3 15.7143C3 14.4893 3.99305 13.4962 5.21805 13.4962H8.28572C9.51071 13.4962 10.5038 14.4893 10.5038 15.7143V18.782C10.5038 20.007 9.51071 21 8.28572 21H5.21805C3.99305 21 3 20.007 3 18.782V15.7143Z" fill="var(--theme-color-icon, #545452)"></path><path fill-rule="evenodd" clip-rule="evenodd" d="M15.7143 4.50376C15.3198 4.50376 15 4.82356 15 5.21805V8.28572C15 8.6802 15.3198 9 15.7143 9H18.782C19.1764 9 19.4962 8.6802 19.4962 8.28572V5.21805C19.4962 4.82356 19.1764 4.50376 18.782 4.50376H15.7143ZM13.4962 5.21805C13.4962 3.99305 14.4893 3 15.7143 3H18.782C20.007 3 21 3.99305 21 5.21805V8.28572C21 9.51071 20.007 10.5038 18.782 10.5038H15.7143C14.4893 10.5038 13.4962 9.51071 13.4962 8.28572V5.21805Z" fill="var(--theme-color-icon, #545452)"></path><path d="M17.9925 14.2481C17.9925 13.8329 17.6575 13.4962 17.2444 13.4962C16.8312 13.4962 16.4962 13.8329 16.4962 14.2481V20.2406C16.4962 20.6559 16.8312 20.9925 17.2444 20.9925C17.6575 20.9925 17.9925 20.6559 17.9925 20.2406V14.2481Z" fill="var(--theme-color-icon, #545452)"></path><path fill-rule="evenodd" clip-rule="evenodd" d="M17.9925 14.2481C17.9925 13.8329 17.6575 13.4962 17.2444 13.4962C16.8312 13.4962 16.4962 13.8329 16.4962 14.2481V20.2406C16.4962 20.6559 16.8312 20.9925 17.2444 20.9925C17.6575 20.9925 17.9925 20.6559 17.9925 20.2406V14.2481Z" fill="var(--theme-color-icon, #545452)"></path><path d="M20.2406 16.4962H14.2481C13.8329 16.4962 13.4962 16.8312 13.4962 17.2444C13.4962 17.6575 13.8329 17.9925 14.2481 17.9925H20.2406C20.6559 17.9925 20.9925 17.6575 20.9925 17.2444C20.9925 16.8312 20.6559 16.4962 20.2406 16.4962Z" fill="var(--theme-color-icon, #545452)"></path><path fill-rule="evenodd" clip-rule="evenodd" d="M20.2406 17.9925C20.6559 17.9925 20.9925 17.6575 20.9925 17.2444C20.9925 16.8312 20.6559 16.4962 20.2406 16.4962H14.2481C13.8329 16.4962 13.4962 16.8312 13.4962 17.2444C13.4962 17.6575 13.8329 17.9925 14.2481 17.9925H20.2406Z" fill="var(--theme-color-icon, #545452)"></path></svg>