<svg xmlns:xlink="http://www.w3.org/1999/xlink"  width="24px" height="24px" viewBox="0 0 24 24" fill="none" xmlns="http://www.w3.org/2000/svg" class="bepo-icon-svg _1ixx0vi0"><path fill-rule="evenodd" clip-rule="evenodd" d="M3.75 3C3.33579 3 3 3.33579 3 3.75V20.25C3 20.6642 3.33579 21 3.75 21H8.25C8.66421 21 9 20.6642 9 20.25V9H19.5V11.25C19.5 11.6642 19.8358 12 20.25 12C20.6642 12 21 11.6642 21 11.25V3.75C21 3.33579 20.6642 3 20.25 3H3.75ZM9 4.5V7.5H19.5V4.5H9ZM7.5 4.5H4.5V19.5H7.5V4.5Z" fill="var(--theme-color-icon, #545452)"></path><path d="M16.0607 15L17.7803 13.2803C17.9948 13.0658 18.059 12.7432 17.9429 12.463C17.8268 12.1827 17.5533 12 17.25 12H12.75C12.3358 12 12 12.3358 12 12.75V17.25C12 17.5533 12.1827 17.8268 12.463 17.9429C12.7432 18.059 13.0658 17.9948 13.2803 17.7803L15 16.0607L19.7197 20.7803C20.0126 21.0732 20.4874 21.0732 20.7803 20.7803C21.0732 20.4874 21.0732 20.0126 20.7803 19.7197L16.0607 15Z" fill="var(--theme-color-icon, #545452)"></path></svg>