<svg xmlns:xlink="http://www.w3.org/1999/xlink"  width="24px" height="24px" viewBox="0 0 24 24" fill="none" xmlns="http://www.w3.org/2000/svg" class="bepo-icon-svg _1ixx0vi0"><path d="M21.0218 7.68637C22.0882 9.91673 22.2906 12.463 21.59 14.8339C20.8894 17.2047 19.3355 19.232 17.2281 20.5245C15.1207 21.817 12.6092 22.283 10.1784 21.8327C7.74753 21.3823 5.56969 20.0475 4.06515 18.0859C2.56061 16.1242 1.83602 13.6748 2.03124 11.2103C2.22647 8.74585 3.32765 6.44105 5.12227 4.74075C6.9169 3.04044 9.27773 2.06517 11.7491 2.00315C14.2205 1.94113 16.6273 2.79677 18.505 4.40492L20.6827 2.22625C20.8269 2.08205 21.0225 2.00104 21.2264 2.00104C21.4303 2.00104 21.6259 2.08205 21.7701 2.22625C21.9143 2.37045 21.9953 2.56602 21.9953 2.76995C21.9953 2.97388 21.9143 3.16946 21.7701 3.31366L12.5482 12.5356C12.404 12.6798 12.2084 12.7608 12.0045 12.7608C11.8006 12.7608 11.605 12.6798 11.4608 12.5356C11.3166 12.3914 11.2356 12.1958 11.2356 11.9918C11.2356 11.7879 11.3166 11.5923 11.4608 11.4481L14.1236 8.78532C13.402 8.30804 12.5403 8.08829 11.6782 8.16163C10.8162 8.23498 10.004 8.59713 9.37339 9.18947C8.74274 9.7818 8.33045 10.5696 8.20327 11.4254C8.07609 12.2813 8.24147 13.1549 8.67263 13.9051C9.10379 14.6552 9.77549 15.2378 10.579 15.5587C11.3825 15.8796 12.2708 15.9199 13.1001 15.6731C13.9293 15.4263 14.651 14.9068 15.1483 14.1988C15.6456 13.4908 15.8894 12.6357 15.8402 11.7719C15.8346 11.6709 15.8488 11.5699 15.8822 11.4745C15.9156 11.3791 15.9674 11.2912 16.0348 11.2158C16.1021 11.1404 16.1836 11.0791 16.2747 11.0352C16.3658 10.9913 16.4646 10.9658 16.5655 10.9601C16.7693 10.9487 16.9693 11.0187 17.1216 11.1547C17.1969 11.222 17.2583 11.3035 17.3022 11.3946C17.346 11.4857 17.3715 11.5845 17.3772 11.6854C17.4473 12.9081 17.0981 14.118 16.3873 15.1153C15.6765 16.1126 14.6467 16.8375 13.4682 17.1702C12.2896 17.503 11.0327 17.4236 9.90536 16.9452C8.77799 16.4669 7.84759 15.6182 7.26792 14.5394C6.68826 13.4606 6.49403 12.2164 6.71734 11.0122C6.94066 9.80811 7.56814 8.71623 8.49609 7.91704C9.42404 7.11786 10.5969 6.65922 11.8208 6.61693C13.0447 6.57464 14.2465 6.95123 15.2274 7.68445L17.4128 5.49906C15.8112 4.16937 13.7749 3.47827 11.6949 3.5585C9.61482 3.63872 7.63776 4.48461 6.1434 5.9337C4.64904 7.38279 3.74275 9.3329 3.5986 11.4095C3.45444 13.4861 4.08259 15.5427 5.3624 17.1844C6.6422 18.826 8.48342 19.937 10.5324 20.3038C12.5814 20.6707 14.6937 20.2676 16.4636 19.1719C18.2335 18.0763 19.5362 16.3654 20.1215 14.3678C20.7068 12.3702 20.5334 10.2268 19.6347 8.3492C19.5468 8.16525 19.5355 7.95393 19.6035 7.76171C19.6714 7.56949 19.8129 7.41212 19.9968 7.32422C20.1808 7.23633 20.3921 7.2251 20.5843 7.29302C20.7765 7.36094 20.9339 7.50243 21.0218 7.68637Z" fill="var(--theme-color-icon, #545452)"></path></svg>