<svg xmlns:xlink="http://www.w3.org/1999/xlink"  width="24px" height="24px" viewBox="0 0 24 24" fill="none" xmlns="http://www.w3.org/2000/svg" class="bepo-icon-svg _1ixx0vi0"><path d="M12 18.1538C12.6373 18.1538 13.1538 17.6373 13.1538 17C13.1538 16.3627 12.6373 15.8462 12 15.8462C11.3627 15.8462 10.8462 16.3627 10.8462 17C10.8462 17.6373 11.3627 18.1538 12 18.1538Z" fill="var(--theme-color-icon, #545452)"></path><path d="M12.6753 6.6819C12.0038 6.54833 11.3078 6.61688 10.6753 6.87888C10.0428 7.14088 9.5022 7.58455 9.12184 8.1538C8.74148 8.72304 8.53846 9.3923 8.53846 10.0769C8.53846 10.5018 8.88286 10.8462 9.30769 10.8462C9.73253 10.8462 10.0769 10.5018 10.0769 10.0769C10.0769 9.69658 10.1897 9.32477 10.401 9.00852C10.6123 8.69227 10.9127 8.44579 11.2641 8.30023C11.6155 8.15468 12.0021 8.1166 12.3752 8.1908C12.7482 8.265 13.0909 8.44816 13.3598 8.7171C13.6288 8.98605 13.8119 9.32871 13.8861 9.70175C13.9603 10.0748 13.9222 10.4615 13.7767 10.8129C13.6311 11.1643 13.3847 11.4646 13.0684 11.6759C12.7522 11.8872 12.3803 12 12 12C11.796 12 11.6003 12.081 11.4561 12.2253C11.3118 12.3696 11.2308 12.5652 11.2308 12.7692V13.5385C11.2308 13.9633 11.5752 14.3077 12 14.3077C12.4248 14.3077 12.7692 13.9633 12.7692 13.5385V13.4519C13.1789 13.3585 13.5702 13.1909 13.9231 12.9551C14.4924 12.5747 14.9361 12.0341 15.198 11.4016C15.46 10.7691 15.5286 10.0731 15.395 9.40161C15.2615 8.73014 14.9318 8.11335 14.4477 7.62925C13.9636 7.14514 13.3468 6.81546 12.6753 6.6819Z" fill="var(--theme-color-icon, #545452)"></path><path fill-rule="evenodd" clip-rule="evenodd" d="M2 12C2 6.47715 6.47715 2 12 2C17.5228 2 22 6.47715 22 12C22 17.5228 17.5228 22 12 22C6.47715 22 2 17.5228 2 12ZM12 3.53846C7.32682 3.53846 3.53846 7.32682 3.53846 12C3.53846 16.6732 7.32682 20.4615 12 20.4615C16.6732 20.4615 20.4615 16.6732 20.4615 12C20.4615 7.32682 16.6732 3.53846 12 3.53846Z" fill="var(--theme-color-icon, #545452)"></path></svg>