<svg xmlns:xlink="http://www.w3.org/1999/xlink"  width="16" height="16" viewBox="0 0 16 16" fill="none" xmlns="http://www.w3.org/2000/svg" class="yS7LCrNyTM7JBcBUVJPv"><circle cx="8" cy="8" r="8" fill="#FFF5EB"></circle><path d="M4.11981 8.10156C4.01994 8.0026 3.97 7.88542 3.97 7.75C3.97 7.61458 4.01994 7.49739 4.11981 7.39844L7.65222 3.89844C7.75209 3.79948 7.87037 3.75 8.00704 3.75C8.14371 3.75 8.26198 3.79948 8.36185 3.89844L11.8943 7.39844C11.9941 7.4974 12.0441 7.61458 12.0441 7.75C12.0441 7.88542 11.9941 8.0026 11.8943 8.10156C11.7944 8.20052 11.6761 8.25 11.5394 8.25L4.47463 8.25C4.33796 8.25 4.21969 8.20052 4.11981 8.10156Z" fill="#FC6423"></path><path d="M6.48855 10.25H9.52559C9.80173 10.25 10.0256 10.0261 10.0256 9.75C10.0256 9.47386 9.80173 9.25 9.52559 9.25H6.48855C6.21242 9.25 5.98858 9.47386 5.98858 9.75C5.98858 10.0261 6.21242 10.25 6.48855 10.25Z" fill="#FC6423"></path><path d="M9.52559 12.25H6.48855C6.21242 12.25 5.98858 12.0261 5.98858 11.75C5.98858 11.4739 6.21242 11.25 6.48855 11.25H9.52559C9.80173 11.25 10.0256 11.4739 10.0256 11.75C10.0256 12.0261 9.80173 12.25 9.52559 12.25Z" fill="#FC6423"></path></svg>