<svg xmlns:xlink="http://www.w3.org/1999/xlink"  width="24px" height="24px" viewBox="0 0 24 24" fill="none" xmlns="http://www.w3.org/2000/svg" class="bepo-icon-svg _1ixx0vi0"><path fill-rule="evenodd" clip-rule="evenodd" d="M7.70308 5.1608C7.70308 3.96742 8.66247 3 9.84594 3H14.154C15.3375 3 16.2969 3.96742 16.2969 5.1608V5.88784C16.2969 6.28563 15.9771 6.60811 15.5826 6.60811C15.1881 6.60811 14.8683 6.28563 14.8683 5.88784V5.1608C14.8683 4.76301 14.5485 4.44053 14.154 4.44053H9.84594C9.45145 4.44053 9.13165 4.76301 9.13165 5.1608V5.88784C9.13165 6.28563 8.81186 6.60811 8.41737 6.60811C8.02288 6.60811 7.70308 6.28563 7.70308 5.88784V5.1608Z" fill="var(--theme-color-icon, #545452)"></path><path fill-rule="evenodd" clip-rule="evenodd" d="M9 11.9246C9.23669 12.2429 9.17273 12.6943 8.85714 12.933L6.7619 14.5176L8.85714 16.1022C9.17273 16.3409 9.23669 16.7923 9 17.1106C8.76331 17.4288 8.31559 17.4933 8 17.2546L5.14286 15.0938C4.963 14.9578 4.85714 14.7443 4.85714 14.5176C4.85714 14.2909 4.963 14.0774 5.14286 13.9414L8 11.7806C8.31559 11.5419 8.76331 11.6064 9 11.9246Z" fill="var(--theme-color-icon, #545452)"></path><path fill-rule="evenodd" clip-rule="evenodd" d="M15 11.9246C14.7633 12.2429 14.8273 12.6943 15.1429 12.933L17.2381 14.5176L15.1429 16.1022C14.8273 16.3409 14.7633 16.7923 15 17.1106C15.2367 17.4288 15.6844 17.4933 16 17.2546L18.8571 15.0938C19.037 14.9578 19.1429 14.7443 19.1429 14.5176C19.1429 14.2909 19.037 14.0774 18.8571 13.9414L16 11.7806C15.6844 11.5419 15.2367 11.6064 15 11.9246Z" fill="var(--theme-color-icon, #545452)"></path><path fill-rule="evenodd" clip-rule="evenodd" d="M12.9402 11.6735C13.3144 11.7993 13.5167 12.2072 13.3919 12.5846L11.9633 16.9062C11.8386 17.2835 11.4341 17.4875 11.0598 17.3617C10.6856 17.2359 10.4833 16.828 10.6081 16.4506L12.0367 12.129C12.1614 11.7517 12.5659 11.5477 12.9402 11.6735Z" fill="var(--theme-color-icon, #545452)"></path><path fill-rule="evenodd" clip-rule="evenodd" d="M2 10.196C2 9.00263 2.95939 8.0352 4.14286 8.0352H19.8571C21.0406 8.0352 22 9.00263 22 10.196V18.8392C22 20.0326 21.0406 21 19.8571 21H4.14286C2.95939 21 2 20.0326 2 18.8392V10.196ZM4.14286 9.47574C3.74837 9.47574 3.42857 9.79821 3.42857 10.196V18.8392C3.42857 19.237 3.74837 19.5595 4.14286 19.5595H19.8571C20.2516 19.5595 20.5714 19.237 20.5714 18.8392V10.196C20.5714 9.79821 20.2516 9.47574 19.8571 9.47574H4.14286Z" fill="var(--theme-color-icon, #545452)"></path></svg>