<svg xmlns:xlink="http://www.w3.org/1999/xlink"  width="32" height="32" viewBox="0 0 48 48" fill="none" xmlns="http://www.w3.org/2000/svg" class="bepo-pictogram-svg _2bvj2j0"><path fill-rule="evenodd" clip-rule="evenodd" d="M23.9999 13.9959C18.4759 13.9959 13.9979 18.474 13.9979 23.9979C13.9979 29.5219 18.4759 33.9999 23.9999 33.9999C29.5238 33.9999 34.0019 29.5219 34.0019 23.9979C34.0019 18.474 29.5238 13.9959 23.9999 13.9959ZM12.4019 23.9979C12.4019 17.5925 17.5945 12.3999 23.9999 12.3999C30.4053 12.3999 35.5979 17.5925 35.5979 23.9979C35.5979 30.4033 30.4053 35.5959 23.9999 35.5959C17.5945 35.5959 12.4019 30.4033 12.4019 23.9979ZM23.9999 17.0319C24.4406 17.0319 24.7979 17.3892 24.7979 17.8299V23.9979C24.7979 24.2095 24.7138 24.4125 24.5641 24.5622L21.4801 27.6462C21.1685 27.9578 20.6632 27.9578 20.3516 27.6462C20.0399 27.3345 20.0399 26.8293 20.3516 26.5176L23.2019 23.6674V17.8299C23.2019 17.3892 23.5591 17.0319 23.9999 17.0319Z" fill="#1B1B1A" class="bepo-2-pictogram--color-primary"></path><path fill-rule="evenodd" clip-rule="evenodd" d="M37.2956 18.0638C37.6073 17.7522 38.1125 17.7522 38.4242 18.0638L43.7642 23.4038C44.0756 23.7152 44.0758 24.22 43.7648 24.5317L38.4248 29.8837C38.1135 30.1957 37.6082 30.1963 37.2963 29.885C36.9843 29.5737 36.9837 29.0684 37.295 28.7564L42.072 23.9687L37.2956 19.1923C36.984 18.8807 36.984 18.3754 37.2956 18.0638ZM10.6568 18.1244C10.9681 18.4364 10.9675 18.9417 10.6555 19.253L5.86971 24.0281L10.6555 28.8032C10.9675 29.1145 10.9681 29.6197 10.6568 29.9317C10.3455 30.2437 9.84024 30.2443 9.52826 29.933L4.17626 24.593C4.02622 24.4433 3.94189 24.24 3.94189 24.0281C3.94189 23.8161 4.02622 23.6129 4.17626 23.4632L9.52826 18.1232C9.84024 17.8119 10.3455 17.8125 10.6568 18.1244Z" fill="#FC6423" class="bepo-2-pictogram--color-secondary"></path></svg>