<svg xmlns:xlink="http://www.w3.org/1999/xlink"  width="32" height="32" viewBox="0 0 48 48" fill="none" xmlns="http://www.w3.org/2000/svg" class="bepo-pictogram-svg _2bvj2j0"><path d="M30.9259 1.60059C30.489 1.6005 29.9568 1.6004 29.4097 1.72455C28.9378 1.75853 28.5565 2.00725 28.3055 2.30844C28.0387 2.62864 27.8801 3.04883 27.8801 3.48058V4.44058C27.8801 4.4719 27.8702 4.50717 27.8359 4.549C27.8025 4.5899 27.7589 4.61966 27.724 4.63508C26.7205 4.88939 25.7055 5.27039 24.8032 5.786C24.7872 5.79511 24.7716 5.80477 24.7563 5.81495C24.7119 5.84456 24.6762 5.84899 24.6571 5.84763C24.6475 5.84694 24.6372 5.84467 24.6249 5.83899C24.6128 5.83336 24.5922 5.82137 24.5658 5.7949L23.8458 5.0749C23.1815 4.41067 22.1511 4.43179 21.5163 4.85495C21.4927 4.87074 21.4698 4.88779 21.448 4.90601C20.6939 5.53443 19.948 6.28065 19.2094 7.14047C18.8438 7.52293 18.7429 8.01228 18.7963 8.4398C18.8496 8.86601 19.0557 9.26754 19.3544 9.56625L20.0744 10.2862C20.1009 10.3127 20.1129 10.3333 20.1185 10.3454C20.1242 10.3577 20.1265 10.368 20.1271 10.3776C20.1285 10.3967 20.1241 10.4324 20.0945 10.4768C20.0843 10.4921 20.0746 10.5077 20.0655 10.5237C19.5427 11.4386 19.1583 12.4694 18.904 13.4866C18.7968 13.9152 19.0574 14.3495 19.4861 14.4567C19.9147 14.5638 20.349 14.3032 20.4562 13.8746C20.6799 12.9795 21.0117 12.0979 21.4433 11.3374C21.856 10.6939 21.8526 9.80174 21.2058 9.1549L20.4858 8.4349C20.4579 8.40699 20.433 8.37256 20.4144 8.33531C20.3956 8.29785 20.3868 8.26485 20.3839 8.24135C20.3833 8.23638 20.3829 8.23217 20.3828 8.22868C20.3912 8.21971 20.3995 8.21055 20.4075 8.2012C21.0867 7.40878 21.7589 6.73513 22.4231 6.17628C22.4519 6.16402 22.504 6.14986 22.5702 6.154C22.6501 6.15899 22.6948 6.18665 22.7144 6.20625L23.4344 6.92625C24.0813 7.57308 24.9734 7.57646 25.6169 7.16382C26.3775 6.73216 27.2591 6.40043 28.1541 6.17667C28.174 6.1717 28.1936 6.16598 28.2131 6.1595C28.8202 5.95713 29.4801 5.34192 29.4801 4.44058V3.48058C29.4801 3.45969 29.4842 3.43274 29.4949 3.40347C29.5057 3.37409 29.5204 3.34977 29.5347 3.33271C29.5392 3.32725 29.5432 3.32314 29.5464 3.32012C29.6029 3.31826 29.6592 3.31041 29.7141 3.29667C30.0833 3.20436 30.4652 3.20056 30.9601 3.20056C31.4549 3.20056 31.8368 3.20436 32.2061 3.29667C32.261 3.31041 32.3172 3.31826 32.3738 3.32012C32.377 3.32314 32.381 3.32725 32.3855 3.33271C32.3997 3.34977 32.4145 3.37409 32.4253 3.40347C32.436 3.43274 32.4401 3.45969 32.4401 3.48058V4.44058C32.4401 4.81285 32.534 5.19734 32.7731 5.5261C33.0166 5.86085 33.3666 6.0768 33.7661 6.17667C34.6611 6.40043 35.5427 6.73217 36.3033 7.16382C36.9468 7.57645 37.8389 7.57308 38.4858 6.92625L39.2058 6.20625C39.2337 6.17834 39.2681 6.15347 39.3054 6.13485C39.3428 6.11612 39.3758 6.10732 39.3993 6.10438C39.4043 6.10376 39.4085 6.10343 39.412 6.10328C39.421 6.11172 39.4301 6.11995 39.4395 6.12797C40.2319 6.80718 40.9055 7.47935 41.4644 8.14358C41.4766 8.17235 41.4908 8.22451 41.4867 8.29068C41.4817 8.37055 41.454 8.4153 41.4344 8.4349L40.7144 9.1549C40.0676 9.80173 40.0642 10.6939 40.4768 11.3374C40.9085 12.0979 41.2402 12.9795 41.464 13.8746C41.469 13.8945 41.4747 13.9141 41.4812 13.9336C41.6738 14.5116 42.2407 15.1374 43.0724 15.1961L43.8203 15.4098C43.8918 15.4302 43.9658 15.4406 44.0401 15.4406C44.061 15.4406 44.0879 15.4447 44.1172 15.4554C44.1466 15.4662 44.1709 15.4809 44.188 15.4951C44.1934 15.4997 44.1975 15.5037 44.2005 15.5069C44.2024 15.5634 44.2103 15.6197 44.224 15.6746C44.3163 16.0438 44.3201 16.4257 44.3201 16.9206C44.3201 17.1024 44.2974 17.2927 44.2663 17.5414L44.264 17.5599C44.2366 17.7786 44.2031 18.0468 44.2003 18.3242L44.1973 18.3265C44.1588 18.3561 44.0659 18.4006 43.9201 18.4006H43.0801C42.7078 18.4006 42.3233 18.4945 41.9946 18.7336C41.6598 18.9771 41.4439 19.3271 41.344 19.7266C41.1202 20.6216 40.7885 21.5032 40.3568 22.2638C39.9442 22.9073 39.9476 23.7994 40.5944 24.4462L41.3144 25.1662C41.3423 25.1942 41.3672 25.2286 41.3858 25.2658C41.4045 25.3033 41.4134 25.3363 41.4163 25.3598C41.4169 25.3648 41.4172 25.369 41.4174 25.3725C41.4132 25.377 41.409 25.3815 41.4048 25.3861C41.4007 25.3907 41.3967 25.3953 41.3927 25.4C40.7135 26.1924 40.0413 26.866 39.3771 27.4249C39.3483 27.4371 39.2962 27.4513 39.23 27.4472C39.1501 27.4422 39.1054 27.4145 39.0858 27.3949L38.3658 26.6749C37.7189 26.0281 36.8268 26.0247 36.1833 26.4373C35.4227 26.869 34.5411 27.2007 33.6461 27.4245C33.6262 27.4294 33.6065 27.4352 33.5871 27.4416C32.98 27.644 32.3201 28.2592 32.3201 29.1606V30.1206C32.3201 30.1415 32.316 30.1684 32.3053 30.1977C32.2945 30.2271 32.2797 30.2514 32.2655 30.2684C32.2627 30.2719 32.26 30.2748 32.2577 30.2772C32.2563 30.2786 32.255 30.2799 32.2538 30.281C32.1972 30.2829 32.141 30.2907 32.0861 30.3045C31.7168 30.3968 31.3349 30.4006 30.8401 30.4006C30.6583 30.4006 30.4679 30.3779 30.2193 30.3468L30.2008 30.3445C29.9794 30.3168 29.7071 30.2827 29.426 30.2807C29.4242 30.2789 29.4221 30.2768 29.4198 30.2744C29.4182 30.2726 29.4165 30.2706 29.4147 30.2684C29.4004 30.2514 29.3857 30.2271 29.3749 30.1977C29.3642 30.1684 29.3601 30.1415 29.3601 30.1206V29.1606C29.3601 28.7883 29.2662 28.4038 29.0271 28.0751C28.7836 27.7403 28.4336 27.5244 28.0341 27.4245C27.1391 27.2007 26.2575 26.869 25.4969 26.4373C24.8534 26.0247 23.9612 26.0281 23.3144 26.6749L22.5944 27.3949C22.5665 27.4228 22.5321 27.4477 22.4948 27.4663C22.4574 27.485 22.4244 27.4938 22.4009 27.4968C22.3959 27.4974 22.3917 27.4977 22.3882 27.4979C22.3792 27.4894 22.3701 27.4812 22.3607 27.4732C21.5683 26.794 20.8946 26.1218 20.3358 25.4576C20.3235 25.4288 20.3094 25.3766 20.3135 25.3105C20.3185 25.2306 20.3462 25.1859 20.3658 25.1662L21.0858 24.4462C21.3982 24.1338 21.3982 23.6273 21.0858 23.3149C20.7734 23.0025 20.2668 23.0025 19.9544 23.3149L19.2344 24.0349C18.5702 24.6991 18.5913 25.7296 19.0145 26.3643C19.0303 26.388 19.0473 26.4108 19.0655 26.4327C19.6939 27.1868 20.4402 27.9327 21.3 28.6712C21.6824 29.0369 22.1718 29.1378 22.5993 29.0844C23.0255 29.0311 23.4271 28.825 23.7258 28.5262L24.4458 27.8062C24.4722 27.7798 24.4928 27.7678 24.5049 27.7622C24.5172 27.7565 24.5275 27.7542 24.5371 27.7535C24.5562 27.7522 24.5919 27.7566 24.6363 27.7862C24.6516 27.7964 24.6672 27.806 24.6832 27.8152C25.5981 28.338 26.6289 28.7224 27.6461 28.9767C27.6896 28.9876 27.712 28.9999 27.7211 29.0057C27.7294 29.0111 27.7331 29.0161 27.7331 29.0161C27.7331 29.0161 27.7601 29.0529 27.7601 29.1606V30.1206C27.7601 30.5523 27.9187 30.9725 28.1855 31.2927C28.4558 31.6171 28.8772 31.8806 29.4001 31.8806C29.5819 31.8806 29.7723 31.9033 30.0209 31.9344L30.0394 31.9367C30.2676 31.9652 30.5498 32.0006 30.8401 32.0006L30.8743 32.0006C31.3112 32.0007 31.8433 32.0008 32.3905 31.8766C32.8623 31.8426 33.2437 31.5939 33.4947 31.2927C33.7615 30.9725 33.9201 30.5523 33.9201 30.1206V29.1606C33.9201 29.1293 33.93 29.094 33.9642 29.0522C33.9977 29.0113 34.0413 28.9815 34.0762 28.9661C35.0797 28.7118 36.0947 28.3308 36.997 27.8152C37.0129 27.806 37.0286 27.7964 37.0438 27.7862C37.0883 27.7566 37.124 27.7522 37.1431 27.7535C37.1527 27.7542 37.163 27.7565 37.1753 27.7622C37.1874 27.7678 37.208 27.7798 37.2344 27.8062L37.9544 28.5262C38.6187 29.1905 39.6491 29.1694 40.2838 28.7462C40.3075 28.7304 40.3304 28.7134 40.3522 28.6951C41.1063 28.0667 41.8522 27.3205 42.5907 26.4607C42.9564 26.0782 43.0573 25.5889 43.0039 25.1614C42.9506 24.7351 42.7445 24.3336 42.4458 24.0349L41.7258 23.3149C41.6993 23.2884 41.6873 23.2679 41.6817 23.2557C41.676 23.2435 41.6737 23.2332 41.673 23.2236C41.6717 23.2045 41.6761 23.1687 41.7057 23.1243C41.7159 23.109 41.7256 23.0934 41.7347 23.0775C42.2575 22.1625 42.6419 21.1317 42.8962 20.1146C42.9071 20.0711 42.9194 20.0487 42.9252 20.0396C42.9306 20.0312 42.9356 20.0275 42.9356 20.0275C42.9356 20.0275 42.9724 20.0006 43.0801 20.0006H43.9201C44.7541 20.0006 45.8001 19.4648 45.8001 18.3606C45.8001 18.1788 45.8228 17.9884 45.8539 17.7398L45.8562 17.7212C45.8848 17.493 45.9201 17.2109 45.9201 16.9206L45.9201 16.8864C45.9202 16.4495 45.9203 15.9173 45.7961 15.3702C45.7621 14.8983 45.5134 14.517 45.2122 14.266C44.9239 14.0257 44.5544 13.8732 44.1684 13.8452L43.4199 13.6314C43.3484 13.611 43.2744 13.6006 43.2001 13.6006C43.1688 13.6006 43.1335 13.5906 43.0917 13.5564C43.0508 13.523 43.021 13.4794 43.0056 13.4445C42.7513 12.441 42.3703 11.426 41.8547 10.5237C41.8456 10.5077 41.8359 10.4921 41.8257 10.4768C41.7961 10.4324 41.7917 10.3967 41.793 10.3776C41.7937 10.368 41.796 10.3577 41.8017 10.3454C41.8073 10.3333 41.8193 10.3127 41.8458 10.2862L42.5658 9.56625C43.23 8.90201 43.2089 7.87157 42.7857 7.23683C42.7699 7.21314 42.7529 7.19031 42.7346 7.16844C42.1062 6.41434 41.36 5.66849 40.5002 4.92992C40.1178 4.56426 39.6284 4.46333 39.2009 4.51677C38.7747 4.57005 38.3731 4.7762 38.0744 5.0749L37.3544 5.7949C37.328 5.82137 37.3074 5.83336 37.2952 5.83899C37.283 5.84467 37.2727 5.84694 37.2631 5.84763C37.244 5.84899 37.2083 5.84456 37.1638 5.81495C37.1486 5.80477 37.1329 5.79511 37.117 5.786C36.2021 5.26318 35.1712 4.87876 34.1541 4.62448C34.1106 4.6136 34.0882 4.6013 34.0791 4.59544C34.0707 4.59004 34.0671 4.58504 34.0671 4.58504C34.0671 4.58504 34.0401 4.54799 34.0401 4.44058V3.48058C34.0401 3.04883 33.8815 2.62864 33.6147 2.30844C33.3637 2.00725 32.9823 1.75853 32.5105 1.72455C31.9633 1.6004 31.4312 1.6005 30.9943 1.60059H30.9259Z" fill="#FC6423" class="bepo-2-pictogram--color-secondary"></path><path fill-rule="evenodd" clip-rule="evenodd" d="M30.9601 13.6006C29.1928 13.6006 27.7601 15.0333 27.7601 16.8006C27.7601 18.5679 29.1928 20.0005 30.9601 20.0005C32.7274 20.0005 34.1601 18.5679 34.1601 16.8006C34.1601 15.0333 32.7274 13.6006 30.9601 13.6006ZM29.3601 16.8006C29.3601 15.9169 30.0764 15.2005 30.9601 15.2005C31.8438 15.2005 32.5601 15.9169 32.5601 16.8006C32.5601 17.6842 31.8438 18.4006 30.9601 18.4006C30.0764 18.4006 29.3601 17.6842 29.3601 16.8006Z" fill="#FC6423" class="bepo-2-pictogram--color-secondary"></path><path d="M16.5601 16L16.5259 16C16.089 15.9999 15.5568 15.9998 15.0097 16.124C14.5378 16.1579 14.1565 16.4067 13.9055 16.7079C13.6387 17.028 13.4801 17.4482 13.4801 17.88V18.84C13.4801 18.8713 13.4702 18.9066 13.4359 18.9484C13.4025 18.9893 13.3589 19.0191 13.324 19.0345C12.3205 19.2888 11.3055 19.6698 10.4032 20.1854C10.3873 20.1945 10.3716 20.2042 10.3563 20.2144C10.3119 20.244 10.2762 20.2484 10.2571 20.247C10.2475 20.2464 10.2372 20.2441 10.2249 20.2384C10.2128 20.2328 10.1922 20.2208 10.1658 20.1943L9.44577 19.4743C8.78153 18.8101 7.75109 18.8312 7.11635 19.2544C7.09266 19.2702 7.06983 19.2872 7.04796 19.3054C6.29386 19.9338 5.548 20.6801 4.80942 21.5399C4.44378 21.9223 4.34285 22.4117 4.39629 22.8392C4.44957 23.2654 4.65572 23.667 4.95443 23.9657L5.67443 24.6857C5.70089 24.7121 5.71289 24.7327 5.71852 24.7448C5.72419 24.7571 5.72646 24.7674 5.72715 24.777C5.72852 24.7961 5.72408 24.8318 5.69447 24.8762C5.68429 24.8915 5.67463 24.9071 5.66552 24.9231C5.15947 25.8087 4.78309 26.8028 4.52887 27.7881C4.47066 27.8866 4.41919 27.9325 4.38635 27.9544C4.35194 27.9773 4.30011 28 4.2001 28H3.3601C2.52605 28 1.48012 28.5357 1.48012 29.64C1.48012 29.8218 1.45737 30.0121 1.42629 30.2608L1.42398 30.2793C1.39542 30.5075 1.36012 30.7897 1.36012 31.08L1.36011 31.1142C1.36003 31.5511 1.35992 32.0832 1.48407 32.6304C1.51805 33.1022 1.76677 33.4836 2.06796 33.7346C2.38816 34.0014 2.80836 34.16 3.2401 34.16H4.2001C4.23142 34.16 4.26669 34.1699 4.30852 34.2041C4.34942 34.2376 4.37918 34.2812 4.3946 34.3161C4.64892 35.3196 5.02991 36.3346 5.54552 37.2369C5.55463 37.2528 5.56429 37.2685 5.57447 37.2837C5.60408 37.3282 5.60852 37.3639 5.60715 37.383C5.60646 37.3926 5.60419 37.4029 5.59852 37.4151C5.59289 37.4273 5.58089 37.4479 5.55443 37.4743L4.83443 38.1943C4.17019 38.8586 4.19131 39.889 4.61447 40.5237C4.63026 40.5474 4.64731 40.5703 4.66554 40.5921C5.29395 41.3462 6.04016 42.0921 6.89999 42.8307C7.28245 43.1963 7.7718 43.2972 8.19932 43.2438C8.62553 43.1905 9.02706 42.9844 9.32577 42.6857L10.0458 41.9657C10.0722 41.9392 10.0928 41.9272 10.1049 41.9216C10.1172 41.9159 10.1275 41.9136 10.1371 41.9129C10.1562 41.9116 10.1919 41.916 10.2363 41.9456C10.2516 41.9558 10.2673 41.9655 10.2832 41.9746C11.1981 42.4974 12.2289 42.8818 13.2461 43.1361C13.2896 43.147 13.312 43.1593 13.3211 43.1651C13.3294 43.1705 13.3331 43.1755 13.3331 43.1755C13.3331 43.1755 13.3601 43.2123 13.3601 43.32V44.28C13.3601 44.7117 13.5187 45.1319 13.7855 45.4521C14.0558 45.7765 14.4772 46.04 15.0001 46.04C15.1819 46.04 15.3723 46.0627 15.6209 46.0938L15.6394 46.0961C15.8677 46.1247 16.1498 46.16 16.4401 46.16L16.4743 46.16C16.9112 46.1601 17.4434 46.1602 17.9905 46.036C18.4623 46.002 18.8437 45.7533 19.0947 45.4521C19.3615 45.1319 19.5201 44.7117 19.5201 44.28V43.32C19.5201 43.2887 19.53 43.2534 19.5642 43.2116C19.5977 43.1707 19.6413 43.1409 19.6762 43.1255C20.6797 42.8712 21.6947 42.4902 22.597 41.9746C22.6129 41.9655 22.6286 41.9558 22.6438 41.9456C22.6883 41.916 22.724 41.9116 22.7431 41.9129C22.7527 41.9136 22.763 41.9159 22.7753 41.9216C22.7874 41.9272 22.808 41.9392 22.8344 41.9657L23.5544 42.6857C24.2187 43.3499 25.2491 43.3288 25.8839 42.9056C25.9075 42.8898 25.9304 42.8728 25.9522 42.8546C26.7063 42.2261 27.4522 41.4799 28.1908 40.6201C28.5564 40.2377 28.6573 39.7483 28.6039 39.3208C28.5506 38.8946 28.3445 38.493 28.0458 38.1943L27.3258 37.4743C27.2993 37.4479 27.2873 37.4273 27.2817 37.4151C27.276 37.4029 27.2737 37.3926 27.273 37.383C27.2717 37.3639 27.2761 37.3282 27.3057 37.2837C27.3159 37.2685 27.3256 37.2528 27.3347 37.2369C27.8575 36.322 28.2419 35.2911 28.4962 34.274C28.6033 33.8454 28.3427 33.411 27.9141 33.3039C27.4855 33.1967 27.0512 33.4573 26.944 33.886C26.7202 34.781 26.3885 35.6626 25.9569 36.4232C25.5442 37.0667 25.5476 37.9588 26.1944 38.6057L26.9144 39.3257C26.9423 39.3536 26.9672 39.388 26.9858 39.4252C27.0046 39.4627 27.0134 39.4957 27.0163 39.5192C27.0166 39.522 27.0171 39.5269 27.0171 39.5269L27.0174 39.5319C27.009 39.5409 27.0007 39.55 26.9927 39.5594C26.3135 40.3518 25.6413 41.0254 24.9771 41.5843C24.9483 41.5965 24.8962 41.6107 24.83 41.6066C24.7501 41.6016 24.7054 41.5739 24.6858 41.5543L23.9658 40.8343C23.3189 40.1875 22.4268 40.1841 21.7833 40.5967C21.0227 41.0284 20.1411 41.3601 19.2461 41.5839C19.2262 41.5889 19.2065 41.5946 19.1871 41.6011C18.58 41.8034 17.9201 42.4186 17.9201 43.32V44.28C17.9201 44.3009 17.916 44.3278 17.9053 44.3571C17.8945 44.3865 17.8797 44.4108 17.8655 44.4279C17.861 44.4333 17.857 44.4374 17.8538 44.4404C17.7972 44.4423 17.741 44.4502 17.6861 44.4639C17.3168 44.5562 16.935 44.56 16.4401 44.56C16.2583 44.56 16.0679 44.5373 15.8193 44.5062L15.8007 44.5039C15.5793 44.4762 15.3071 44.4421 15.026 44.4401C15.0229 44.4371 15.019 44.4331 15.0147 44.4279C15.0004 44.4108 14.9857 44.3865 14.9749 44.3571C14.9642 44.3278 14.9601 44.3009 14.9601 44.28V43.32C14.9601 42.9477 14.8662 42.5632 14.6271 42.2345C14.3836 41.8997 14.0336 41.6838 13.6341 41.5839C12.7391 41.3601 11.8575 41.0284 11.0969 40.5967C10.4534 40.1841 9.56126 40.1875 8.91443 40.8343L8.19443 41.5543C8.16652 41.5822 8.13208 41.6071 8.09483 41.6257C8.05737 41.6444 8.02437 41.6532 8.00087 41.6562C7.9959 41.6568 7.99169 41.6571 7.9882 41.6573C7.97923 41.6488 7.97007 41.6406 7.96072 41.6326C7.1683 40.9534 6.49465 40.2812 5.9358 39.617C5.92354 39.5882 5.90938 39.5361 5.91352 39.4699C5.91851 39.39 5.94617 39.3453 5.96577 39.3257L6.68577 38.6057C7.3326 37.9588 7.33598 37.0667 6.92334 36.4232C6.49169 35.6626 6.15996 34.781 5.93619 33.886C5.93123 33.8661 5.9255 33.8464 5.91902 33.827C5.71665 33.2199 5.10144 32.56 4.2001 32.56H3.2401C3.21922 32.56 3.19226 32.5559 3.16299 32.5452C3.13361 32.5344 3.10929 32.5196 3.09223 32.5054C3.08677 32.5009 3.08266 32.4969 3.07964 32.4937C3.07778 32.4371 3.06993 32.3809 3.05619 32.326C2.96388 31.9567 2.96008 31.5748 2.96008 31.08C2.96008 30.8982 2.98282 30.7078 3.0139 30.4592L3.01622 30.4407C3.04358 30.222 3.07713 29.9538 3.07989 29.6764L3.08285 29.6741C3.12135 29.6445 3.21429 29.6 3.3601 29.6H4.2001C4.58008 29.6 4.94825 29.5027 5.27385 29.2856C5.59443 29.0719 5.82817 28.7727 5.99562 28.4377C6.02172 28.3855 6.04204 28.3306 6.05619 28.274C6.27995 27.379 6.61169 26.4974 7.04334 25.7368C7.45598 25.0933 7.4526 24.2011 6.80577 23.5543L6.08577 22.8343C6.05786 22.8064 6.03299 22.772 6.01437 22.7347C5.99564 22.6973 5.98684 22.6643 5.9839 22.6408C5.98328 22.6358 5.98295 22.6316 5.9828 22.6281C5.99124 22.6191 5.99947 22.61 6.00749 22.6006C6.6867 21.8082 7.35887 21.1345 8.0231 20.5757C8.05188 20.5634 8.10403 20.5493 8.1702 20.5534C8.25007 20.5584 8.29482 20.5861 8.31443 20.6057L9.03443 21.3257C9.68125 21.9725 10.5734 21.9759 11.2169 21.5632C11.9775 21.1316 12.8591 20.7998 13.7541 20.5761C13.774 20.5711 13.7936 20.5654 13.8131 20.5589C14.4202 20.3565 15.0801 19.7413 15.0801 18.84V17.88C15.0801 17.8591 15.0842 17.8321 15.0949 17.8029C15.1057 17.7735 15.1204 17.7492 15.1347 17.7321C15.1392 17.7267 15.1432 17.7226 15.1464 17.7195C15.2029 17.7177 15.2592 17.7098 15.3141 17.6961C15.6834 17.6038 16.0652 17.6 16.5601 17.6C16.7419 17.6 16.9323 17.6227 17.1809 17.6538L17.1994 17.6561C17.4208 17.6838 17.693 17.7179 17.9742 17.7199C17.9773 17.7229 17.9812 17.7269 17.9855 17.7321C17.9997 17.7492 18.0145 17.7735 18.0253 17.8029C18.036 17.8321 18.0401 17.8591 18.0401 17.88V18.84C18.0401 19.2123 18.134 19.5968 18.3731 19.9255C18.6166 20.2603 18.9666 20.4762 19.3661 20.5761C20.2611 20.7998 21.1427 21.1316 21.9033 21.5632C22.5468 21.9759 23.4389 21.9725 24.0858 21.3257L24.8058 20.6057C24.8337 20.5778 24.8681 20.5529 24.9054 20.5343C24.9428 20.5155 24.9758 20.5067 24.9993 20.5038C25.0043 20.5032 25.0085 20.5028 25.012 20.5027C25.021 20.5111 25.0301 20.5194 25.0395 20.5274C25.8319 21.2066 26.5055 21.8788 27.0644 22.543C27.0767 22.5718 27.0908 22.6239 27.0867 22.6901C27.0817 22.77 27.054 22.8147 27.0344 22.8343L26.3144 23.5543C26.002 23.8667 26.002 24.3732 26.3144 24.6857C26.6268 24.9981 27.1334 24.9981 27.4458 24.6857L28.1658 23.9657C28.83 23.3014 28.8089 22.271 28.3857 21.6362C28.3699 21.6126 28.3529 21.5897 28.3347 21.5679C27.7062 20.8138 26.96 20.0679 26.1002 19.3293C25.7178 18.9637 25.2284 18.8627 24.8009 18.9162C24.3747 18.9695 23.9731 19.1756 23.6744 19.4743L22.9544 20.1943C22.928 20.2208 22.9074 20.2328 22.8953 20.2384C22.883 20.2441 22.8727 20.2464 22.8631 20.247C22.844 20.2484 22.8083 20.244 22.7638 20.2144C22.7486 20.2042 22.7329 20.1945 22.717 20.1854C21.8021 19.6626 20.7712 19.2782 19.7541 19.0239C19.7106 19.013 19.6882 19.0007 19.6791 18.9948C19.6708 18.9895 19.6671 18.9845 19.6671 18.9845C19.6671 18.9845 19.6401 18.9474 19.6401 18.84V17.88C19.6401 17.4482 19.4815 17.0281 19.2147 16.7079C18.9444 16.3835 18.523 16.12 18.0001 16.12C17.8183 16.12 17.6279 16.0973 17.3793 16.0662L17.3608 16.0639C17.1326 16.0353 16.8504 16 16.5601 16Z" fill="#1B1B1A" class="bepo-2-pictogram--color-primary"></path><path fill-rule="evenodd" clip-rule="evenodd" d="M16.5601 28C14.7928 28 13.3601 29.4327 13.3601 31.2C13.3601 32.9673 14.7928 34.4 16.5601 34.4C18.3274 34.4 19.7601 32.9673 19.7601 31.2C19.7601 29.4327 18.3274 28 16.5601 28ZM14.9601 31.2C14.9601 30.3163 15.6764 29.6 16.5601 29.6C17.4438 29.6 18.1601 30.3163 18.1601 31.2C18.1601 32.0836 17.4438 32.8 16.5601 32.8C15.6764 32.8 14.9601 32.0836 14.9601 31.2Z" fill="#1B1B1A" class="bepo-2-pictogram--color-primary"></path></svg>