<svg xmlns:xlink="http://www.w3.org/1999/xlink"  width="48px" height="48px" viewBox="0 0 48 48" fill="none" xmlns="http://www.w3.org/2000/svg" class="bepo-pictogram-svg _2bvj2j0"><path fill-rule="evenodd" clip-rule="evenodd" d="M19.2 13.6134C18.7581 13.6134 18.4 13.9716 18.4 14.4134C18.4 14.8552 18.7581 15.2134 19.2 15.2134H28.7776C29.2194 15.2134 29.5776 14.8552 29.5776 14.4134C29.5776 13.9716 29.2194 13.6134 28.7776 13.6134H19.2ZM19.2 18.4134C18.7581 18.4134 18.4 18.7716 18.4 19.2134C18.4 19.6552 18.7581 20.0134 19.2 20.0134H26.4649C26.9067 20.0134 27.2649 19.6552 27.2649 19.2134C27.2649 18.7716 26.9067 18.4134 26.4649 18.4134H19.2Z" fill="#FC6423" class="bepo-2-pictogram--color-secondary"></path><path fill-rule="evenodd" clip-rule="evenodd" d="M11.16 5.61337C10.9584 5.61337 10.7651 5.69344 10.6226 5.83597C10.4801 5.97849 10.4 6.1718 10.4 6.37337V39.4515C10.4008 39.6013 10.4459 39.7476 10.5297 39.8718C10.6136 39.9965 10.7326 40.0934 10.8717 40.1504C11.0107 40.2074 11.1635 40.2219 11.3108 40.1921C11.4581 40.1623 11.5932 40.0895 11.6991 39.9829L11.7016 39.9804L18.1782 33.5171C18.3934 33.2976 18.6498 33.1224 18.9326 33.0017C19.2173 32.8802 19.5233 32.8162 19.8328 32.8134L19.84 32.8133L36.84 32.8134C37.0416 32.8134 37.2349 32.7333 37.3774 32.5908C37.5199 32.4482 37.6 32.2549 37.6 32.0534V6.37337C37.6 6.1718 37.5199 5.97849 37.3774 5.83597C37.2349 5.69344 37.0415 5.61337 36.84 5.61337H11.16ZM9.49122 4.70459C9.9338 4.26201 10.5341 4.01337 11.16 4.01337H36.84C37.4659 4.01337 38.0662 4.26201 38.5088 4.70459C38.9513 5.14718 39.2 5.74746 39.2 6.37337V32.0534C39.2 32.6793 38.9513 33.2796 38.5088 33.7221C38.0662 34.1647 37.4659 34.4134 36.84 34.4134H19.8442C19.7467 34.4146 19.6504 34.435 19.5607 34.4732C19.4702 34.5119 19.3881 34.5681 19.3193 34.6386L19.3118 34.6464L12.8342 41.1105C12.8337 41.111 12.8332 41.1115 12.8328 41.112C12.5041 41.4422 12.085 41.6678 11.6283 41.7603C11.171 41.8529 10.6965 41.8078 10.2647 41.6308C9.83295 41.4538 9.46337 41.1528 9.20267 40.7658C8.94196 40.3787 8.80183 39.9231 8.79999 39.4565L8.79999 39.4534V6.37337C8.79999 5.74746 9.04863 5.14718 9.49122 4.70459Z" fill="#1B1B1A" class="bepo-2-pictogram--color-primary"></path></svg>