<svg xmlns:xlink="http://www.w3.org/1999/xlink"  width="20px" height="20px" viewBox="0 0 24 24" fill="none" xmlns="http://www.w3.org/2000/svg" class="bepo-icon-svg _1ixx0vi0"><path d="M20.7819 3.22126C20.8525 3.29223 20.9059 3.37379 20.9422 3.4608C20.9794 3.5498 21 3.6475 21 3.75V9.375C21 9.78921 20.6642 10.125 20.25 10.125C19.8358 10.125 19.5 9.78921 19.5 9.375V5.56066L14.0303 11.0303C13.7374 11.3232 13.2626 11.3232 12.9697 11.0303C12.6768 10.7374 12.6768 10.2626 12.9697 9.96967L18.4393 4.5H14.625C14.2108 4.5 13.875 4.16421 13.875 3.75C13.875 3.33579 14.2108 3 14.625 3H20.25C20.4563 3 20.6431 3.08329 20.7787 3.21808L20.7803 3.21967L20.7819 3.22126Z" fill="var(--theme-color-icon, #545452)"></path><path d="M4.5 6C4.10217 6 3.72064 6.15804 3.43934 6.43934C3.15804 6.72064 3 7.10217 3 7.5V19.5C3 19.8978 3.15804 20.2794 3.43934 20.5607C3.72065 20.842 4.10218 21 4.5 21H16.5C16.8978 21 17.2794 20.842 17.5607 20.5607C17.842 20.2794 18 19.8978 18 19.5V13.5C18 13.0858 17.6642 12.75 17.25 12.75C16.8358 12.75 16.5 13.0858 16.5 13.5V19.5H4.5L4.5 7.5H10.5C10.9142 7.5 11.25 7.16421 11.25 6.75C11.25 6.33579 10.9142 6 10.5 6H4.5Z" fill="var(--theme-color-icon, #545452)"></path></svg>