<svg xmlns:xlink="http://www.w3.org/1999/xlink"  width="24px" height="24px" viewBox="0 0 24 24" fill="none" xmlns="http://www.w3.org/2000/svg" class="bepo-icon-svg _1ixx0vi0"><path fill-rule="evenodd" clip-rule="evenodd" d="M7.33374 3.44311C7.85678 3.14224 8.50213 3 9.27476 3C9.65981 3 9.97195 3.33579 9.97195 3.75C9.97195 4.16421 9.65981 4.5 9.27476 4.5C8.65299 4.5 8.25255 4.61557 7.99125 4.76588C7.74168 4.90943 7.57861 5.10737 7.46192 5.36627C7.19777 5.95233 7.18317 6.78789 7.18317 7.875C7.18317 7.90558 7.18318 7.93641 7.1832 7.96747C7.18365 8.92706 7.1842 10.1075 6.76472 11.0381C6.60127 11.4008 6.37426 11.7297 6.06724 12C6.37426 12.2703 6.60127 12.5992 6.76472 12.9619C7.1842 13.8925 7.18365 15.0729 7.1832 16.0325C7.18318 16.0636 7.18317 16.0944 7.18317 16.125C7.18317 17.2121 7.19777 18.0477 7.46192 18.6337C7.57861 18.8926 7.74168 19.0906 7.99125 19.2341C8.25255 19.3844 8.65299 19.5 9.27476 19.5C9.65981 19.5 9.97195 19.8358 9.97195 20.25C9.97195 20.6642 9.65981 21 9.27476 21C8.50213 21 7.85678 20.8578 7.33374 20.5569C6.79896 20.2493 6.43914 19.8027 6.20723 19.2881C5.78775 18.3575 5.7883 17.1771 5.78875 16.2175C5.78877 16.1864 5.78878 16.1556 5.78878 16.125C5.78878 15.0379 5.77418 14.2023 5.51003 13.6163C5.39334 13.3574 5.23027 13.1594 4.9807 13.0159C4.7194 12.8656 4.31896 12.75 3.6972 12.75C3.31214 12.75 3 12.4142 3 12C3 11.5858 3.31214 11.25 3.6972 11.25C4.31896 11.25 4.7194 11.1344 4.9807 10.9841C5.23027 10.8406 5.39334 10.6426 5.51003 10.3837C5.77418 9.79767 5.78878 8.96211 5.78878 7.875C5.78878 7.84442 5.78877 7.81359 5.78875 7.78253C5.7883 6.82294 5.78775 5.64254 6.20723 4.71186C6.43914 4.19732 6.79896 3.75073 7.33374 3.44311Z" fill="var(--theme-color-icon, #545452)"></path><path fill-rule="evenodd" clip-rule="evenodd" d="M14.028 3.75C14.028 3.33579 14.3402 3 14.7252 3C15.4979 3 16.1432 3.14224 16.6663 3.44311C17.201 3.75073 17.5609 4.19732 17.7928 4.71186C18.2122 5.64254 18.2117 6.82294 18.2112 7.78253C18.2112 7.81359 18.2112 7.84442 18.2112 7.875C18.2112 8.96211 18.2258 9.79767 18.49 10.3837C18.6067 10.6426 18.7697 10.8406 19.0193 10.9841C19.2806 11.1344 19.681 11.25 20.3028 11.25C20.6879 11.25 21 11.5858 21 12C21 12.4142 20.6879 12.75 20.3028 12.75C19.681 12.75 19.2806 12.8656 19.0193 13.0159C18.7697 13.1594 18.6067 13.3574 18.49 13.6163C18.2258 14.2023 18.2112 15.0379 18.2112 16.125C18.2112 16.1556 18.2112 16.1864 18.2112 16.2175C18.2117 17.1771 18.2122 18.3575 17.7928 19.2881C17.5609 19.8027 17.201 20.2493 16.6663 20.5569C16.1432 20.8578 15.4979 21 14.7252 21C14.3402 21 14.028 20.6642 14.028 20.25C14.028 19.8358 14.3402 19.5 14.7252 19.5C15.347 19.5 15.7475 19.3844 16.0088 19.2341C16.2583 19.0906 16.4214 18.8926 16.5381 18.6337C16.8022 18.0477 16.8168 17.2121 16.8168 16.125C16.8168 16.0944 16.8168 16.0636 16.8168 16.0325C16.8164 15.0729 16.8158 13.8925 17.2353 12.9619C17.3987 12.5992 17.6257 12.2703 17.9328 12C17.6257 11.7297 17.3987 11.4008 17.2353 11.0381C16.8158 10.1075 16.8164 8.92706 16.8168 7.96747C16.8168 7.93641 16.8168 7.90558 16.8168 7.875C16.8168 6.78789 16.8022 5.95233 16.5381 5.36627C16.4214 5.10737 16.2583 4.90943 16.0088 4.76588C15.7475 4.61557 15.347 4.5 14.7252 4.5C14.3402 4.5 14.028 4.16421 14.028 3.75Z" fill="var(--theme-color-icon, #545452)"></path></svg>