<svg xmlns:xlink="http://www.w3.org/1999/xlink"  width="20px" height="20px" viewBox="0 0 24 24" fill="none" xmlns="http://www.w3.org/2000/svg" class="bepo-icon-svg _1ixx0vi0"><path d="M12.5143 5.24153C12.7983 4.95751 12.7983 4.49703 12.5143 4.21301C12.2302 3.929 11.7698 3.929 11.4857 4.21301L4.21301 11.4857C3.929 11.7698 3.929 12.2302 4.21301 12.5143L11.4857 19.787C11.7698 20.071 12.2302 20.071 12.5143 19.787C12.7983 19.503 12.7983 19.0425 12.5143 18.7585L5.75579 12L12.5143 5.24153Z" fill="var(--theme-color-icon, #545452)"></path><path d="M19.787 5.24153C20.071 4.95751 20.071 4.49703 19.787 4.21301C19.503 3.929 19.0425 3.929 18.7585 4.21301L11.4857 11.4857C11.2017 11.7698 11.2017 12.2302 11.4857 12.5143L18.7585 19.787C19.0425 20.071 19.503 20.071 19.787 19.787C20.071 19.503 20.071 19.0425 19.787 18.7585L13.0285 12L19.787 5.24153Z" fill="var(--theme-color-icon, #545452)"></path></svg>