<svg xmlns:xlink="http://www.w3.org/1999/xlink"  width="20px" height="20px" viewBox="0 0 24 24" fill="none" xmlns="http://www.w3.org/2000/svg" class="bepo-icon-svg _1ixx0vi0" aria-label="Warning"><path fill-rule="evenodd" clip-rule="evenodd" d="M2.25 12C2.25 6.61522 6.61522 2.25 12 2.25C17.3848 2.25 21.75 6.61522 21.75 12C21.75 17.3848 17.3848 21.75 12 21.75C6.61522 21.75 2.25 17.3848 2.25 12ZM12.75 7.5C12.75 7.08579 12.4142 6.75 12 6.75C11.5858 6.75 11.25 7.08579 11.25 7.5V12.75C11.25 13.1642 11.5858 13.5 12 13.5C12.4142 13.5 12.75 13.1642 12.75 12.75V7.5ZM13.125 16.125C13.125 16.7463 12.6213 17.25 12 17.25C11.3787 17.25 10.875 16.7463 10.875 16.125C10.875 15.5037 11.3787 15 12 15C12.6213 15 13.125 15.5037 13.125 16.125Z" fill="var(--theme-color-icon-warning, #ad7410)"></path></svg>