<svg xmlns:xlink="http://www.w3.org/1999/xlink"  width="20px" height="20px" viewBox="0 0 24 24" fill="none" xmlns="http://www.w3.org/2000/svg" class="bepo-icon-svg _1ixx0vi0" aria-label="Information"><path fill-rule="evenodd" clip-rule="evenodd" d="M12 2.25C6.61522 2.25 2.25 6.61522 2.25 12C2.25 17.3848 6.61522 21.75 12 21.75C17.3848 21.75 21.75 17.3848 21.75 12C21.75 6.61522 17.3848 2.25 12 2.25ZM11.8125 9C12.4338 9 12.9375 8.49632 12.9375 7.875C12.9375 7.25368 12.4338 6.75 11.8125 6.75C11.1912 6.75 10.6875 7.25368 10.6875 7.875C10.6875 8.49632 11.1912 9 11.8125 9ZM10.5 11.25C10.5 10.8358 10.8358 10.5 11.25 10.5H12C12.4142 10.5 12.75 10.8358 12.75 11.25V15.75C13.1642 15.75 13.5 16.0858 13.5 16.5C13.5 16.9142 13.1642 17.25 12.75 17.25H12C11.5858 17.25 11.25 16.9142 11.25 16.5V12C10.8358 12 10.5 11.6642 10.5 11.25Z" fill="var(--theme-color-icon-info, #3950ad)"></path></svg>