<svg xmlns:xlink="http://www.w3.org/1999/xlink"  width="24px" height="24px" viewBox="0 0 24 24" fill="none" xmlns="http://www.w3.org/2000/svg" class="bepo-icon-svg _1ixx0vi0"><path fill-rule="evenodd" clip-rule="evenodd" d="M13.1111 15.4251C8.93407 15.5469 5.91005 16.7062 3.93991 18.5786C3.57696 18.9235 3.08985 18.9562 2.72051 18.8098C2.34643 18.6615 2 18.2889 2 17.7592V4.13292C2 3.60322 2.34643 3.23055 2.72051 3.08227C3.08984 2.93587 3.57696 2.96855 3.93991 3.31349C6.02467 5.29481 9.28949 6.47762 13.8519 6.4776H17.5556C20.0102 6.4776 22 8.47818 22 10.946C22 13.2166 20.3156 15.0916 18.1346 15.3769L16.7898 20.4472C16.7324 20.6635 16.5813 20.8423 16.3783 20.9343C16.1753 21.0262 15.942 21.0215 15.7428 20.9214L13.5206 19.8043C13.2696 19.6781 13.1111 19.4202 13.1111 19.1382V15.4251ZM3.48148 17.0012V4.89091C5.77999 6.7855 9.01605 7.84399 13.1111 7.95698V13.9351C9.01605 14.0481 5.77999 15.1066 3.48148 17.0012ZM16.5914 15.4144L15.5925 19.1805L14.5926 18.6779V15.4144H16.5914ZM14.5926 13.925V7.96708H17.5556C19.192 7.96708 20.5185 9.3008 20.5185 10.946C20.5185 12.5913 19.192 13.925 17.5556 13.925H14.5926Z" fill="var(--theme-color-icon, #545452)"></path></svg>