<svg xmlns:xlink="http://www.w3.org/1999/xlink"  width="24px" height="24px" viewBox="0 0 24 24" fill="none" xmlns="http://www.w3.org/2000/svg" class="bepo-icon-svg _1ixx0vi0"><path fill-rule="evenodd" clip-rule="evenodd" d="M12 2C7.94619 2 4.65994 5.31641 4.65994 9.40741V10.1481C4.65994 11.4884 4.65725 12.4384 4.4783 13.3488C4.30442 14.2335 3.95644 15.1086 3.21624 16.2391C2.66855 17.0755 3.20984 18.2963 4.29293 18.2963H8.32997C8.32997 20.3418 9.9731 22 12 22C14.0269 22 15.67 20.3418 15.67 18.2963H19.7071C20.7902 18.2963 21.3315 17.0755 20.7838 16.2391C20.0436 15.1086 19.6956 14.2335 19.5217 13.3488C19.3427 12.4384 19.3401 11.4884 19.3401 10.1481V9.40741C19.3401 5.31641 16.0538 2 12 2ZM14.202 18.2963H9.79798C9.79798 19.5236 10.7839 20.5185 12 20.5185C13.2161 20.5185 14.202 19.5236 14.202 18.2963ZM6.12795 9.40741C6.12795 6.13461 8.75696 3.48148 12 3.48148C15.243 3.48148 17.8721 6.13461 17.8721 9.40741V10.1963C17.872 11.4795 17.872 12.57 18.0817 13.6371C18.2852 14.6721 18.6788 15.6599 19.4044 16.8148H4.59565C5.32122 15.6599 5.71482 14.6721 5.91826 13.6371C6.12801 12.5699 6.12798 11.4796 6.12795 10.1964L6.12795 9.40741Z" fill="var(--theme-color-icon, #545452)"></path></svg>