<svg xmlns:xlink="http://www.w3.org/1999/xlink"  width="16px" height="16px" viewBox="0 0 24 24" fill="none" xmlns="http://www.w3.org/2000/svg" class="bepo-icon-svg _1ixx0vi0" aria-disabled="false"><path d="M10.4615 11.2308C10.4615 10.8059 10.8059 10.4615 11.2308 10.4615H12C12.4248 10.4615 12.7692 10.8059 12.7692 11.2308V15.8462C13.1941 15.8462 13.5385 16.1906 13.5385 16.6154C13.5385 17.0402 13.1941 17.3846 12.7692 17.3846H12C11.5752 17.3846 11.2308 17.0402 11.2308 16.6154V12C10.8059 12 10.4615 11.6556 10.4615 11.2308Z" fill="var(--theme-color-icon, #545452)"></path><path d="M12.9615 7.76923C12.9615 8.40648 12.4449 8.92308 11.8077 8.92308C11.1704 8.92308 10.6538 8.40648 10.6538 7.76923C10.6538 7.13198 11.1704 6.61539 11.8077 6.61539C12.4449 6.61539 12.9615 7.13198 12.9615 7.76923Z" fill="var(--theme-color-icon, #545452)"></path><path fill-rule="evenodd" clip-rule="evenodd" d="M2 12C2 6.47715 6.47715 2 12 2C17.5228 2 22 6.47715 22 12C22 17.5228 17.5228 22 12 22C6.47715 22 2 17.5228 2 12ZM12 3.53846C7.32682 3.53846 3.53846 7.32682 3.53846 12C3.53846 16.6732 7.32682 20.4615 12 20.4615C16.6732 20.4615 20.4615 16.6732 20.4615 12C20.4615 7.32682 16.6732 3.53846 12 3.53846Z" fill="var(--theme-color-icon, #545452)"></path></svg>