<svg xmlns:xlink="http://www.w3.org/1999/xlink"  width="24px" height="24px" viewBox="0 0 24 24" fill="none" xmlns="http://www.w3.org/2000/svg" class="bepo-icon-svg _1ixx0vi0"><path d="M21.0001 5.25002C21.0001 6.49267 19.9928 7.50004 18.7501 7.50004C18.656 7.50004 18.5633 7.49427 18.4723 7.48306L15.6759 13.0884C15.5625 13.3157 15.3422 13.4704 15.0899 13.4999C14.8376 13.5294 14.5875 13.4296 14.4248 13.2346L11.3636 9.56613L6.95531 17.2821C7.1351 17.4907 7.27724 17.7328 7.37119 17.9976H19.5026C19.9182 17.9976 20.2552 18.3346 20.2552 18.7502C20.2552 19.1658 19.9182 19.5027 19.5026 19.5027H7.37106C7.06142 20.3752 6.22869 21 5.25002 21C4.00737 21 3 19.9926 3 18.75C3 17.7713 3.62488 16.9385 4.49744 16.6289V4.49744C4.49744 4.08183 4.83435 3.74492 5.24995 3.74492C5.66556 3.74492 6.00247 4.08183 6.00247 4.49744V15.9159L10.5941 7.87913C10.7164 7.66511 10.9357 7.52454 11.1812 7.50284C11.4268 7.48113 11.6674 7.58105 11.8253 7.7703L14.843 11.3867L17.127 6.80826C16.7387 6.40394 16.5001 5.85485 16.5001 5.25002C16.5001 4.00737 17.5075 3 18.7501 3C19.9928 3 21.0001 4.00737 21.0001 5.25002Z" fill="var(--theme-color-icon, #545452)"></path></svg>