<svg width="70px" height="26px" viewBox="0 0 70 26" fill="none" xmlns="http://www.w3.org/2000/svg">
<path d="M4.00291 18.3108C4.29916 19.0975 4.70715 19.7639 5.2278 20.3192C5.74757 20.8736 6.36668 21.3033 7.07803 21.5934C7.78849 21.8915 8.56548 22.0366 9.40189 22.0366C10.2383 22.0366 10.9816 21.8844 11.693 21.5738C12.4043 21.2704 13.0296 20.8344 13.5627 20.2791C14.0958 19.7248 14.5047 19.0574 14.8009 18.285C15.0972 17.5118 15.2417 16.6531 15.2417 15.6956V0.98584H18.8038V24.8235H15.2745V22.6114C14.4843 23.4496 13.5494 24.0974 12.4761 24.553C11.4029 25.0086 10.2445 25.2337 9.00009 25.2337C7.75567 25.2337 6.55118 25.0086 5.45133 24.5663C4.35149 24.1232 3.40418 23.4959 2.60058 22.6772C1.79699 21.8577 1.16547 20.8807 0.698037 19.731C0.236811 18.5822 0 17.3071 0 15.9003V0.98584H3.56208V15.6956C3.56208 16.6469 3.70666 17.5189 4.00291 18.2975V18.3108Z" fill="#1B1B1A"/>
<path d="M24.9458 0.992676V9.6784C25.7361 8.88574 26.6576 8.25174 27.6981 7.78929C28.7385 7.32693 29.8711 7.08917 31.0952 7.08917C32.3201 7.08917 33.5512 7.32693 34.6572 7.80255C35.7633 8.27807 36.7248 8.92543 37.5408 9.74443C38.3577 10.5635 39.0025 11.5277 39.4771 12.6374C39.9507 13.747 40.1875 14.9296 40.1875 16.178C40.1875 17.4264 39.9507 18.6019 39.4771 19.7053C39.0025 20.8078 38.3577 21.7661 37.5408 22.5848C36.7248 23.4043 35.7633 24.0512 34.6572 24.5264C33.5512 25.0024 32.36 25.24 31.0952 25.24C29.8312 25.24 28.7385 25.0087 27.6847 24.5397C26.6319 24.0779 25.7103 23.4435 24.92 22.6506V24.8307H21.5229V0.992676H24.9529H24.9458ZM25.3343 18.5289C25.6376 19.2559 26.0651 19.8904 26.6053 20.4385C27.1455 20.9795 27.7841 21.4155 28.5079 21.7332C29.2325 22.05 30.0157 22.2084 30.8521 22.2084C31.6877 22.2084 32.4389 22.05 33.1627 21.7332C33.8873 21.4155 34.5127 20.9866 35.0457 20.4385C35.5788 19.8966 36.001 19.2559 36.3168 18.5289C36.6325 17.8028 36.7904 17.0171 36.7904 16.178C36.7904 15.3389 36.6325 14.546 36.3168 13.8128C36.001 13.0796 35.5726 12.4327 35.0457 11.8908C34.5127 11.3498 33.8873 10.9202 33.1627 10.6164C32.4389 10.3125 31.6682 10.1539 30.8521 10.1539C30.0352 10.1539 29.2653 10.3059 28.5407 10.6164C27.8169 10.9202 27.1845 11.3498 26.6381 11.8908C26.098 12.4327 25.6642 13.0796 25.3476 13.8128C25.0318 14.5532 24.8739 15.3389 24.8739 16.178C24.8739 17.0171 25.0256 17.8028 25.3343 18.5289Z" fill="#1B1B1A"/>
<path d="M42.1238 12.6774C42.578 11.5873 43.1971 10.6294 43.9936 9.79717C44.7839 8.9715 45.7249 8.31756 46.8115 7.84204C47.898 7.36642 49.0768 7.12866 50.3408 7.12866C51.6047 7.12866 52.7374 7.35325 53.8035 7.80902C54.8705 8.26479 55.7859 8.89221 56.5558 9.69804C57.3257 10.5039 57.9253 11.4548 58.3528 12.5581C58.7812 13.6615 58.9985 14.8566 58.9985 16.1513V17.2742H44.9089C45.0207 17.9808 45.2513 18.6286 45.5866 19.2292C45.929 19.8307 46.3512 20.3522 46.8576 20.7944C47.365 21.2375 47.9442 21.581 48.589 21.832C49.2347 22.0829 49.9194 22.2083 50.6432 22.2083C52.7045 22.2083 54.3632 21.3559 55.6342 19.6519L58.1098 21.4885C57.2467 22.6444 56.1868 23.5555 54.9167 24.2096C53.6527 24.8698 52.2238 25.2 50.637 25.2C49.3465 25.2 48.142 24.9757 47.0226 24.5201C45.9032 24.0645 44.9284 23.4301 44.1053 22.6114C43.2822 21.7919 42.6312 20.8345 42.1567 19.7311C41.683 18.6286 41.4453 17.4326 41.4453 16.1379C41.4453 14.9091 41.6697 13.7541 42.1238 12.664V12.6774ZM46.8904 11.3293C45.929 12.1355 45.2903 13.205 44.9746 14.546H55.5287C55.2324 13.205 54.6071 12.1355 53.6456 11.3293C52.6842 10.5237 51.5586 10.1208 50.268 10.1208C48.9775 10.1208 47.8519 10.5237 46.8904 11.3293Z" fill="#1B1B1A"/>
<path d="M65.4042 11.7189C64.6804 12.5118 64.3185 13.5956 64.3185 14.9561V24.8306H60.8877V7.46563H64.2857V9.61225C64.7132 8.90555 65.2729 8.35074 65.9638 7.94115C66.6557 7.53165 67.4717 7.3269 68.427 7.3269H69.612V10.5304H68.1831C67.0504 10.5304 66.1226 10.9267 65.3979 11.7189H65.4042Z" fill="#1B1B1A"/>
</svg>